<svg version="1.1" xmlns="http://www.w3.org/2000/svg" viewBox="0 0 250 250" width="250" height="250">
	<style>
		.s0 { fill: #87b7e8 } 
		.s1 { fill: #660434 } 
		.s2 { fill: #ffcc00 } 
	</style>
		<path class="s0" d="m121.2 0.1c-0.5 0-1.9 0.1-3 0.1-1.2 0.1-3 0.2-4 0.3-1 0.1-2.9 0.3-4.2 0.4-1.2 0.2-3.3 0.4-4.6 0.6-1.3 0.3-3.7 0.7-5.3 1-1.6 0.3-4 0.9-5.4 1.2-1.4 0.4-3.4 0.9-4.6 1.2-1.1 0.3-2.8 0.9-3.8 1.2-1.1 0.3-2.7 0.9-3.8 1.3-1 0.4-3 1.1-4.3 1.6-1.3 0.6-3.4 1.5-4.7 2.1-1.3 0.5-3.6 1.7-5.2 2.5-1.6 0.8-3.8 2-5 2.7-1.2 0.6-2.9 1.6-3.8 2.2-1 0.6-2.6 1.6-3.6 2.3-1.1 0.7-2.7 1.9-3.6 2.5-1 0.7-2.2 1.6-2.9 2.1-0.6 0.5-1.7 1.3-2.4 1.9-0.7 0.6-2 1.6-2.8 2.3-0.7 0.7-2.1 1.8-2.9 2.6-0.9 0.7-2.9 2.8-4.6 4.5-1.7 1.7-3.7 3.7-4.5 4.6-0.8 0.8-1.8 2-2.3 2.6-0.6 0.6-1.6 1.9-2.3 2.8-0.8 0.9-1.8 2.2-2.4 3-0.5 0.7-1.5 2-2.1 2.8-0.6 0.9-1.8 2.7-2.7 4-0.9 1.3-2.1 3.3-2.7 4.3-0.6 1-1.6 2.6-2.1 3.6-0.5 1-1.7 3.3-2.6 5.1-1 1.8-2.2 4.5-2.8 6-0.7 1.5-1.5 3.5-1.9 4.6-0.4 1.1-1.2 3.1-1.6 4.5-0.5 1.3-1.1 3.2-1.3 4-0.3 0.8-0.8 2.5-1.1 3.7-0.3 1.2-0.8 3.3-1.2 4.7-0.3 1.4-0.7 3.4-0.9 4.3-0.1 0.9-0.4 2.6-0.6 3.6-0.2 1.1-0.4 2.9-0.6 4.1-0.1 1.1-0.3 2.8-0.4 3.7-0.1 1-0.2 2.8-0.3 4.1-0.1 1.3-0.2 4.2-0.3 6.3 0 2.4 0 5.1 0.1 6.8 0.1 1.5 0.2 3.7 0.3 4.9 0.1 1.1 0.3 3.1 0.4 4.4 0.1 1.3 0.4 3.2 0.5 4.2 0.2 1 0.4 2.5 0.6 3.4 0.1 0.8 0.5 2.5 0.7 3.8 0.3 1.3 0.8 3.4 1.1 4.6 0.3 1.3 0.7 2.9 0.9 3.7 0.2 0.8 0.7 2.3 1 3.5 0.4 1.1 1 2.9 1.4 3.9 0.3 1.1 0.9 2.8 1.3 3.8 0.4 1 1.1 2.7 1.5 3.7 0.4 1 1.1 2.5 1.6 3.5 0.4 0.9 1.3 2.8 2 4.1 0.7 1.3 1.6 3.2 2.1 4 0.5 0.9 1.5 2.6 2.2 3.9 0.7 1.2 2.2 3.4 3.1 4.9 1 1.5 2.5 3.5 3.2 4.5 0.7 1 1.9 2.5 2.5 3.3 0.7 0.9 1.8 2.3 2.5 3.1 0.7 0.9 1.7 2 2.3 2.7 0.5 0.6 2 2.1 3.1 3.4 1.2 1.2 3.2 3.2 4.5 4.4 1.2 1.2 2.7 2.6 3.4 3.2 0.6 0.5 1.9 1.6 2.8 2.4 0.9 0.7 2.4 1.9 3.3 2.7 1 0.7 2.4 1.8 3.3 2.4 0.8 0.6 2.7 1.9 4.2 2.9 1.4 1 3.6 2.4 4.8 3.1 1.3 0.7 3.1 1.8 4 2.3 1 0.5 3.2 1.7 4.9 2.5 1.6 0.8 4 1.9 5.2 2.5 1.1 0.5 2.8 1.2 3.7 1.5 0.8 0.4 2.4 0.9 3.4 1.3 1 0.4 2.8 1 4.1 1.4 1.2 0.4 3 1 3.9 1.3 1 0.2 2.6 0.7 3.7 1 1.2 0.3 3 0.7 4.2 1 1.2 0.2 3.1 0.6 4.2 0.8 1.1 0.2 2.8 0.5 3.8 0.7 1 0.1 2.7 0.3 3.9 0.5 1.1 0.1 3.3 0.3 4.7 0.5 1.4 0.1 3.6 0.2 4.9 0.3 1.2 0.1 3.8 0.1 5.7 0.1 1.9 0 4.5 0 5.7-0.1 1.3-0.1 3.5-0.2 4.9-0.3 1.4-0.2 3.6-0.4 4.7-0.5 1.2-0.2 2.9-0.4 3.9-0.5 1-0.2 2.8-0.5 4-0.7 1.3-0.3 3.2-0.6 4.2-0.9 1.1-0.2 2.8-0.6 4-0.9 1.1-0.3 2.7-0.8 3.7-1 0.9-0.3 2.7-0.9 3.9-1.3 1.3-0.4 3.1-1 4.1-1.4 1-0.4 2.7-1 3.7-1.4 1.1-0.4 2.8-1.2 3.9-1.6 1-0.5 3.2-1.5 4.8-2.3 1.7-0.9 3.8-2 4.8-2.5 0.9-0.5 2.7-1.6 4-2.3 1.2-0.7 3.4-2.1 4.8-3.1 1.5-1 3.4-2.3 4.2-2.9 0.9-0.6 2.3-1.7 3.3-2.4 0.9-0.8 2.4-2 3.3-2.7 0.9-0.8 2.2-1.9 2.8-2.4 0.7-0.6 2.2-2 3.4-3.2 1.3-1.2 3.3-3.2 4.5-4.4 1.1-1.3 2.6-2.8 3.1-3.4 0.6-0.7 1.6-1.8 2.3-2.7 0.7-0.8 1.8-2.2 2.5-3.1 0.6-0.8 1.8-2.3 2.5-3.3 0.7-1 2.2-3 3.2-4.5 0.9-1.5 2.4-3.7 3.1-4.9 0.7-1.3 1.7-3 2.2-3.9 0.5-0.8 1.4-2.7 2.1-4 0.7-1.3 1.6-3.2 2-4.1 0.5-1 1.2-2.5 1.6-3.5 0.4-1 1.1-2.7 1.5-3.7 0.4-1 1-2.7 1.3-3.8 0.4-1 1-2.8 1.4-3.9 0.3-1.2 0.8-2.7 1-3.5 0.2-0.8 0.6-2.4 0.9-3.7 0.3-1.2 0.8-3.3 1.1-4.6 0.2-1.3 0.6-3 0.7-3.8 0.2-0.9 0.4-2.4 0.6-3.4 0.1-1 0.4-2.9 0.5-4.2 0.1-1.3 0.3-3.3 0.4-4.4 0.1-1.2 0.2-3.4 0.3-4.9 0.1-1.7 0.1-4.4 0.1-6.8-0.1-2.1-0.2-5-0.3-6.3-0.1-1.3-0.2-3.1-0.3-4.1-0.1-0.9-0.3-2.6-0.4-3.7-0.2-1.2-0.4-3-0.6-4.1-0.2-1-0.5-2.7-0.6-3.6-0.2-0.9-0.6-2.9-0.9-4.3-0.4-1.4-0.9-3.5-1.2-4.7-0.3-1.2-0.8-2.9-1.1-3.7-0.2-0.8-0.8-2.7-1.3-4-0.4-1.4-1.2-3.4-1.6-4.5-0.4-1.1-1.2-3.1-1.9-4.6-0.6-1.5-1.8-4.2-2.8-6-0.9-1.8-2.1-4.1-2.6-5.1-0.5-1-1.5-2.6-2.1-3.6-0.6-1-1.8-3-2.7-4.3-0.9-1.3-2.1-3.1-2.7-4-0.6-0.8-1.6-2.1-2.1-2.8-0.6-0.8-1.6-2.1-2.4-3-0.7-0.9-1.7-2.2-2.3-2.8-0.5-0.6-1.5-1.8-2.3-2.6-0.8-0.9-2.8-2.9-4.5-4.6-1.7-1.7-3.7-3.8-4.6-4.5-0.8-0.8-2.2-1.9-2.9-2.6-0.8-0.7-2.1-1.7-2.8-2.3-0.7-0.6-1.8-1.4-2.4-1.9-0.7-0.5-1.9-1.4-2.9-2.1-0.9-0.6-2.5-1.8-3.6-2.5-1-0.7-2.6-1.7-3.6-2.3-0.9-0.6-2.6-1.6-3.8-2.2-1.2-0.7-3.4-1.9-5-2.7-1.6-0.8-3.9-2-5.2-2.5-1.3-0.6-3.4-1.5-4.7-2.1-1.3-0.5-3.3-1.2-4.3-1.6-1.1-0.4-2.7-1-3.8-1.3-1-0.3-2.7-0.9-3.8-1.2-1.2-0.3-3.2-0.8-4.6-1.2-1.4-0.3-3.8-0.9-5.4-1.2-1.6-0.3-4-0.7-5.3-1-1.3-0.2-3.4-0.4-4.6-0.6-1.3-0.1-3.2-0.3-4.2-0.4-1.1-0.1-2.8-0.2-3.7-0.3-1 0-3.7-0.1-5.9-0.1-2.2-0.1-4.4-0.1-5 0z"/>
		<path class="s1" d="m119.8 5.5c-1.1 0.1-3 0.2-4.2 0.3-1.2 0.1-3 0.2-4 0.4-1.1 0.1-2.9 0.3-4.1 0.5-1.2 0.2-3.1 0.5-4.3 0.7-1.1 0.2-3 0.6-4.2 0.8-1.2 0.3-3 0.7-4 1-1 0.2-2.5 0.7-3.5 0.9-0.9 0.3-2.9 0.9-4.5 1.5-1.5 0.5-3.6 1.2-4.7 1.6-1 0.4-3 1.2-4.5 1.8-1.4 0.7-4.2 1.9-6.1 2.9-1.9 0.9-4.5 2.3-5.8 3.1-1.3 0.7-3.4 2-4.6 2.8-1.2 0.7-3 1.9-3.9 2.5-1 0.7-2.6 1.8-3.6 2.6-1 0.8-2.6 1.9-3.4 2.6-0.8 0.7-2.2 1.8-3 2.5-0.8 0.7-2.3 2-3.2 2.8-0.9 0.9-2.9 2.8-4.4 4.3-1.5 1.5-3.3 3.5-4.1 4.3-0.7 0.9-2 2.3-2.7 3.2-0.8 0.9-1.9 2.3-2.6 3.2-0.6 0.8-1.7 2.3-2.4 3.2-0.6 0.9-1.9 2.7-2.8 4.1-0.9 1.3-2 3.1-2.5 3.9-0.6 0.9-1.4 2.3-1.9 3.1-0.4 0.9-1.3 2.5-1.9 3.6-0.6 1.1-1.5 2.9-2 3.9-0.5 1.1-1.2 2.8-1.6 3.7-0.5 0.9-1.1 2.6-1.6 3.7-0.4 1.1-1.1 3-1.5 4.1-0.4 1.1-1 3-1.4 4.1-0.3 1.1-0.8 2.6-1 3.3-0.2 0.8-0.6 2.2-0.8 3.3-0.3 1-0.7 2.7-0.9 3.6-0.2 1-0.5 2.7-0.7 3.7-0.2 1.1-0.5 3-0.7 4.2-0.2 1.3-0.4 3.1-0.5 4.1-0.2 1-0.3 2.8-0.4 3.9-0.1 1.2-0.2 3.1-0.3 4.4 0 1.2-0.1 3.6-0.1 5.3 0 1.7 0.1 4.1 0.1 5.4 0.1 1.2 0.2 3.2 0.3 4.3 0.1 1 0.2 2.6 0.3 3.5 0.1 0.8 0.3 2.5 0.5 3.8 0.2 1.2 0.5 3.2 0.7 4.3 0.2 1.2 0.5 2.9 0.7 3.8 0.2 1 0.6 2.7 0.9 3.7 0.2 1.1 0.7 2.9 1.1 4.2 0.3 1.3 1 3.5 1.6 5.1 0.5 1.5 1.3 3.9 1.9 5.2 0.5 1.4 1.3 3.4 1.8 4.6 0.5 1.2 1.6 3.5 2.4 5.1 0.8 1.6 2 3.9 2.6 5 0.7 1.2 1.7 2.9 2.3 3.9 0.6 1 1.7 2.8 2.5 3.9 0.8 1.2 1.9 2.9 2.5 3.8 0.7 0.8 1.8 2.3 2.5 3.3 0.8 0.9 2 2.5 2.8 3.5 0.8 1 2.2 2.6 3.2 3.6 0.9 1 2.8 3.1 4.3 4.6 1.5 1.5 3.6 3.4 4.6 4.4 1.1 0.9 2.7 2.3 3.7 3.1 1 0.8 2.4 2 3.2 2.7 0.9 0.6 2.1 1.6 2.9 2.1 0.8 0.6 2.3 1.6 3.3 2.3 1.1 0.8 2.8 1.9 3.8 2.5 0.9 0.6 2.7 1.6 3.8 2.3 1.2 0.6 3.6 1.9 5.4 2.9 1.9 0.9 4.3 2 5.5 2.6 1.1 0.5 3 1.3 4.2 1.7 1.1 0.5 2.8 1.1 3.7 1.4 1 0.4 2.4 0.9 3.1 1.1 0.8 0.3 2.6 0.8 3.9 1.2 1.3 0.4 3.5 1 4.9 1.3 1.4 0.3 3.6 0.8 4.9 1.1 1.4 0.3 3.5 0.6 4.8 0.8 1.3 0.3 3.4 0.5 4.7 0.7 1.2 0.1 3.1 0.3 4.2 0.4 1.1 0.1 3 0.2 4.2 0.3 1.2 0 3.8 0.1 5.8 0.1 2 0 4.6-0.1 5.8-0.1 1.2-0.1 3.1-0.2 4.2-0.3 1.1-0.1 3-0.3 4.2-0.4 1.3-0.2 3.4-0.4 4.7-0.7 1.3-0.2 3.4-0.5 4.8-0.8 1.3-0.3 3.5-0.8 4.9-1.1 1.4-0.3 3.6-0.9 4.9-1.3 1.3-0.4 3.1-0.9 3.9-1.2 0.7-0.2 2.1-0.7 3.1-1.1 0.9-0.3 2.6-0.9 3.7-1.4 1.2-0.4 3.1-1.2 4.2-1.7 1.2-0.6 3.6-1.7 5.5-2.6 1.8-1 4.2-2.3 5.4-2.9 1.1-0.7 2.9-1.7 3.8-2.3 1-0.6 2.7-1.7 3.8-2.5 1-0.7 2.5-1.7 3.3-2.3 0.8-0.5 2-1.5 2.9-2.1 0.8-0.7 2.2-1.9 3.2-2.7 1-0.8 2.6-2.2 3.7-3.1 1-1 3.1-2.9 4.6-4.4 1.5-1.5 3.4-3.6 4.3-4.6 1-1 2.4-2.6 3.2-3.6 0.8-1 2-2.6 2.8-3.5 0.7-1 1.8-2.5 2.5-3.3 0.6-0.9 1.7-2.6 2.5-3.8 0.8-1.1 2.1-3.2 2.8-4.5 0.8-1.3 1.9-3.1 2.3-3.9 0.5-0.9 1.6-2.9 2.3-4.5 0.8-1.6 1.9-3.8 2.4-5 0.5-1.2 1.3-3.2 1.8-4.6 0.6-1.3 1.4-3.7 1.9-5.2 0.6-1.6 1.3-3.8 1.6-5.1 0.4-1.3 0.9-3.1 1.1-4.2 0.3-1 0.7-2.7 0.9-3.7 0.2-0.9 0.5-2.6 0.7-3.8 0.2-1.1 0.5-3.1 0.7-4.3 0.2-1.3 0.4-3 0.5-3.8 0.1-0.9 0.2-2.5 0.3-3.5 0.1-1.1 0.2-3.1 0.3-4.3 0-1.3 0.1-3.7 0.1-5.4 0-1.7-0.1-4.1-0.1-5.3-0.1-1.3-0.2-3.2-0.3-4.4-0.1-1.1-0.2-2.9-0.4-3.9-0.1-1-0.3-2.8-0.5-4.1-0.2-1.2-0.5-3.1-0.7-4.2-0.2-1-0.5-2.7-0.7-3.7-0.2-0.9-0.6-2.6-0.9-3.6-0.2-1.1-0.6-2.5-0.8-3.3-0.2-0.7-0.7-2.2-1-3.3-0.4-1.1-1-3-1.4-4.1-0.4-1.1-1.1-3-1.5-4.1-0.5-1.1-1.1-2.8-1.6-3.7-0.4-0.9-1.1-2.6-1.6-3.7-0.5-1-1.4-2.8-2-3.9-0.6-1.1-1.5-2.7-1.9-3.6-0.5-0.8-1.3-2.2-1.9-3.1-0.5-0.8-1.6-2.6-2.5-3.9-0.9-1.4-2.2-3.2-2.8-4.1-0.7-0.9-1.8-2.4-2.4-3.2-0.7-0.9-1.8-2.3-2.6-3.2-0.7-0.9-2-2.3-2.7-3.2-0.8-0.8-2.6-2.8-4.1-4.3-1.5-1.5-3.5-3.4-4.4-4.3-0.9-0.8-2.4-2.1-3.2-2.8-0.8-0.7-2.2-1.8-3-2.5-0.8-0.7-2.4-1.8-3.4-2.6-1-0.8-2.6-1.9-3.6-2.6-0.9-0.6-2.7-1.8-3.9-2.5-1.2-0.8-3.3-2.1-4.6-2.8-1.3-0.8-3.9-2.2-5.8-3.1-1.9-1-4.7-2.2-6.1-2.9-1.5-0.6-3.5-1.4-4.5-1.8-1.1-0.4-3.2-1.1-4.7-1.6-1.6-0.6-3.6-1.2-4.5-1.5-1-0.2-2.5-0.7-3.5-0.9-1-0.3-2.8-0.7-4-1-1.2-0.2-3.1-0.6-4.2-0.8-1.2-0.2-3.1-0.5-4.3-0.7-1.2-0.2-3-0.4-4.1-0.5-1-0.2-2.8-0.3-4-0.4-1.1-0.1-3.2-0.2-4.6-0.3-1.5 0-3.8-0.1-5.3-0.1-1.4 0-3.6 0.1-4.7 0.1z"/>
		<path class="s2" d="m120.2 13.1c-0.7 0-1.4 0.1-1.4 0.1 0 0.1 0.1 0.3 0.2 0.5 0.1 0.3 0.3 0.7 0.3 1 0.1 0.4 0.3 2.1 0.4 5.7 0.1 2.9 0.2 5.6 0.2 6.1 0 0.6 0 0.9 0 0.9-0.1 0-2.4-2.9-5.1-6.5-2.8-3.6-5.1-6.6-5.1-6.7-0.1-0.1-0.7 0-3.2 0.4-1.7 0.3-3.1 0.5-3.1 0.5 0 0 0.1 0.2 0.3 0.5 0.3 0.4 0.3 0.5 1.4 8.3 0.6 5 1 8.2 1 8.8 0 0.6-0.1 1.2-0.1 1.5-0.1 0.3-0.2 0.6-0.2 0.6 0 0 0.5-0.1 1.1-0.2 0.5-0.1 1.5-0.3 2.1-0.4 0.7-0.1 1.2-0.2 1.3-0.3q0.1 0-0.1-0.4c-0.1-0.2-0.3-0.6-0.4-0.9-0.1-0.3-0.6-3.6-1.1-7.2-0.6-3.7-1-6.8-1-6.9q0.1-0.2 5.7 7.2l5.6 7.4c3.4-0.1 4.4-0.1 4.4-0.2 0 0-0.1-4-0.2-8.8-0.2-5.7-0.3-9-0.2-9.4 0-0.3 0.2-0.7 0.2-1 0.1-0.3 0.2-0.5 0.2-0.6 0 0-0.4 0-0.9 0-0.5 0-1.6 0-2.3 0zm19.7 1.3c0 0.1 0.2 0.5 0.3 1 0.1 0.4 0.8 4.9 1.4 10l1.3 9.2 3.9 0.9c5.5-8.4 7.8-11.9 8.7-13.3 1-1.4 1.9-2.7 2.4-3.2 0.4-0.4 0.7-0.8 0.6-0.8 0 0-1-0.3-2.1-0.6-1.1-0.4-2.1-0.6-2.1-0.6-0.1 0-0.2 0.3-0.2 0.7-0.1 0.4-0.2 0.9-0.4 1.2-0.1 0.3-1.7 3-3.7 6-1.9 3.1-3.6 5.6-3.6 5.6-0.1 0-0.4-2.4-0.9-6.4-0.5-4.5-0.7-6.6-0.6-7.1 0-0.4 0.1-1 0.3-1.3 0.1-0.4 0.1-0.7 0.1-0.7 0-0.1-1.2-0.3-2.6-0.5-1.3-0.2-2.6-0.4-2.7-0.4-0.1 0-0.2 0.1-0.1 0.3zm-51.1 4.2c-0.5 0.1-1.3 0.3-1.8 0.4-0.5 0.2-1.2 0.5-1.5 0.6-0.3 0.1-1 0.5-1.5 0.9-0.5 0.3-1.2 0.9-1.6 1.3-0.4 0.4-1 1.1-1.2 1.5-0.3 0.5-0.7 1.2-0.9 1.6-0.1 0.5-0.3 1.2-0.4 1.7-0.1 0.4-0.2 1.3-0.2 2 0 0.6 0.1 1.6 0.2 2.1 0.1 0.5 0.3 1.2 0.4 1.7 0.1 0.4 0.4 1.1 0.6 1.5 0.2 0.4 0.7 1.1 1 1.5 0.3 0.5 0.9 1.2 1.4 1.7 0.5 0.4 1.3 1 1.7 1.3 0.4 0.2 1.2 0.6 1.7 0.7 0.6 0.2 1.5 0.4 2 0.5 0.8 0.1 1.4 0.1 2.1 0 0.5-0.1 1.3-0.2 1.7-0.3 0.5-0.2 1.1-0.3 1.4-0.5 0.3-0.1 0.8-0.3 1.2-0.5 0.4-0.2 0.9-0.5 1.1-0.7 0.3-0.1 0.9-0.6 1.3-1 0.4-0.4 1-1.1 1.2-1.4 0.3-0.4 0.7-1.1 0.9-1.6 0.3-0.5 0.6-1.2 0.7-1.7 0.1-0.5 0.2-1.4 0.3-2 0-0.8 0-1.4-0.2-2.1-0.1-0.6-0.3-1.4-0.5-2-0.1-0.5-0.5-1.3-0.7-1.7-0.2-0.4-0.5-0.9-0.7-1.2-0.1-0.2-0.5-0.7-0.8-1-0.2-0.3-0.7-0.8-1-1-0.4-0.3-1-0.8-1.4-1-0.4-0.3-1.2-0.6-1.7-0.8-0.5-0.2-1.4-0.4-1.9-0.5-0.6-0.1-1.3-0.1-1.6-0.1-0.2 0-0.9 0-1.3 0.1zm75.2 2.4c0 0.4-0.1 1.1-0.3 1.4-0.1 0.3-1.4 3.5-2.8 7.1-1.5 3.6-2.9 6.8-3 7.2-0.2 0.4-0.6 0.9-0.9 1.2-0.3 0.3-0.4 0.5-0.4 0.6 0.1 0 1.2 0.4 2.5 1l2.3 0.9q0.2-0.6 0.2-1c0-0.2 0.1-0.7 0.2-1 0-0.3 1.4-3.6 2.9-7.3 1.5-3.6 2.9-6.9 3.1-7.3 0.2-0.3 0.5-0.8 0.8-1.1 0.3-0.3 0.5-0.6 0.4-0.6-0.1-0.1-1.2-0.5-2.4-1-1.3-0.5-2.4-0.9-2.4-0.9-0.1 0-0.1 0.3-0.2 0.8zm12.5 5.2c0 0.3-0.2 0.7-0.3 1.1-0.1 0.3-1.7 3.2-3.5 6.4-1.9 3.2-3.7 6.2-4 6.7-0.4 0.5-1 1.3-1.4 1.7-0.5 0.5-0.7 0.7-0.6 0.8 0.1 0 0.5 0.3 1 0.5 0.5 0.3 1.5 0.8 2.2 1.2 0.7 0.4 2 1.2 2.8 1.6 0.8 0.5 2.4 1.6 3.5 2.3 1.1 0.8 2.1 1.4 2.2 1.3 0 0 0.7-0.7 1.6-1.6 0.8-0.9 1.5-1.7 1.5-1.7-0.1 0-0.3 0-0.5 0.1-0.3 0.1-0.8 0.1-1.2 0.1-0.7-0.1-1-0.1-1.7-0.5-0.5-0.2-2-1.1-3.5-2l-2.6-1.5c0.4-0.8 2.1-3.6 3.9-6.7 1.8-3.1 3.5-5.8 3.6-6 0.2-0.3 0.6-0.7 0.9-0.9 0.2-0.3 0.6-0.6 0.7-0.6 0.1-0.1 0.2-0.2 0.1-0.2 0-0.1-1-0.7-2.3-1.4-1.2-0.7-2.2-1.2-2.3-1.2 0 0 0 0.2-0.1 0.5zm-105.1 0.5c-0.9 0.5-2.1 1.1-2.7 1.5-0.6 0.3-1.8 1-2.6 1.6-0.9 0.5-2.6 1.7-3.9 2.5-1.2 0.8-2.6 1.8-3 2.1-0.6 0.4-0.8 0.7-0.8 0.8 0.1 0 0.6 0.8 1.2 1.6 0.9 1.3 1.2 1.6 1.3 1.5 0.1-0.1 0.1-0.2 0.1-0.3 0 0 0.1-0.4 0.3-0.7q0.3-0.6 0.9-1.2c0.3-0.2 1.2-0.8 1.9-1.3 0.7-0.5 1.3-0.8 1.4-0.8 0 0 1.7 2.6 3.8 5.8 2.1 3.1 3.9 5.9 4 6.2 0.1 0.2 0.3 0.7 0.3 1 0.1 0.2 0.2 0.7 0.2 0.9 0 0.2 0.1 0.4 0.1 0.4 0 0 0.7-0.4 1.6-1 0.8-0.5 1.8-1.1 2.3-1.3 0.4-0.3 0.7-0.5 0.7-0.6 0 0-0.2-0.2-0.5-0.4-0.3-0.2-0.8-0.7-1.1-1-0.2-0.3-2-3.2-3.9-6.3-1.9-3.1-3.5-5.8-3.6-5.9-0.1-0.2 0-0.3 0.9-0.9 0.6-0.3 1.3-0.8 1.6-0.9 0.4-0.2 0.9-0.4 1.2-0.5 0.3-0.1 0.9-0.2 1.3-0.2 0.3 0 0.6 0 0.6 0 0-0.1-0.4-0.8-0.9-1.8-0.5-0.9-0.9-1.7-1-1.7-0.1 0-0.9 0.4-1.7 0.9zm123.1 11.3c-0.1 0.2-0.4 0.8-0.6 1.1-0.3 0.4-2.4 2.8-4.7 5.4-2.3 2.6-4.7 5.2-5.3 5.7-0.6 0.7-1.4 1.3-1.8 1.5l-0.8 0.5q2.2 1.7 3.5 2.8c0.9 0.8 2.4 2.1 3.4 3.1 1 0.9 2.2 2.1 2.6 2.5l0.8 0.9c3-2.1 3.9-2.7 3.9-2.7 0-0.1-0.4-0.1-0.8-0.1-0.4 0-0.9-0.1-1.2-0.2-0.2-0.1-0.7-0.3-1.1-0.6-0.3-0.2-1.3-1-2.2-1.8-0.8-0.7-1.9-1.7-2.5-2.2l-0.9-0.8c8.3-9.2 10.3-11.3 10.6-11.5 0.3-0.1 0.7-0.4 1-0.5 0.2-0.1 0.3-0.2 0.3-0.2 0-0.1-0.8-0.8-1.9-1.7-1.1-0.9-2-1.7-2.1-1.7 0 0-0.1 0.2-0.2 0.5zm-141.4 1.5c-0.5 0.2-1.3 0.6-1.8 0.9-0.4 0.3-1.1 0.8-1.5 1.1-0.4 0.3-1 0.9-1.2 1.2-0.3 0.4-0.7 1-0.9 1.4-0.2 0.4-0.5 1.1-0.6 1.5-0.1 0.5-0.2 1.1-0.2 1.7 0 0.5 0.1 1.2 0.2 1.5 0 0.3 0.2 0.9 0.4 1.2 0.2 0.3 0.6 0.9 1 1.3 0.5 0.5 1 0.9 1.4 1 0.3 0.2 0.8 0.4 1 0.4 0.3 0.1 0.9 0.1 1.3 0.1 0.5 0 1.2 0 1.6-0.1 0.4-0.1 1.7-0.5 2.7-0.9 1.2-0.4 2.2-0.7 2.6-0.7 0.3-0.1 0.8-0.1 1 0 0.2 0 0.5 0.2 0.8 0.5q0.5 0.4 0.7 0.9 0.2 0.5 0.1 1c0 0.3-0.2 0.8-0.3 1.1-0.2 0.4-0.6 0.9-1 1.3-0.3 0.3-0.9 0.8-1.3 1-0.5 0.2-1.2 0.5-1.6 0.6-0.7 0.2-1.2 0.2-2.1 0.2-0.6 0-1.2 0.1-1.2 0.1 0 0 0.6 0.7 1.4 1.4l1.3 1.4c1.2-0.2 1.9-0.5 2.4-0.6 0.4-0.2 1.2-0.6 1.7-0.9 0.4-0.3 1.1-0.8 1.4-1.2 0.4-0.3 0.9-0.8 1.1-1.1 0.3-0.4 0.6-0.9 0.8-1.4 0.2-0.4 0.5-1 0.6-1.4q0.2-0.7 0.2-1.7c0-0.8-0.1-1.3-0.3-1.8-0.1-0.4-0.4-0.9-0.6-1.3-0.2-0.3-0.6-0.8-0.9-1.1-0.3-0.2-0.9-0.6-1.3-0.8-0.4-0.2-1-0.5-1.4-0.5-0.4-0.1-1-0.1-1.3-0.1-0.3 0.1-0.8 0.2-1 0.2-0.3 0.1-1.4 0.5-2.5 0.9-1.1 0.4-2.3 0.7-2.6 0.8-0.6 0.1-0.8 0.1-1.3 0-0.4-0.1-0.6-0.3-1-0.7q-0.5-0.5-0.6-0.9c-0.1-0.3-0.1-0.7-0.1-0.9 0.1-0.3 0.2-0.8 0.4-1.2 0.2-0.4 0.6-0.8 0.9-1.2 0.4-0.3 1-0.7 1.3-0.9 0.4-0.2 1-0.4 1.3-0.5 0.3-0.1 1-0.2 1.5-0.2 0.8 0 0.9 0 0.9-0.1 0-0.1-0.6-0.8-1.2-1.5-0.6-0.8-1.2-1.4-1.2-1.3-0.1 0-0.5 0.1-1 0.3zm-19.4 20.8c-0.6 0.9-1.1 1.6-1.1 1.6 0 0 2 3.2 4.5 6.9 2.4 3.8 4.8 7.4 5.2 8.1 0.5 0.6 1 1.5 1.2 1.9 0.2 0.5 0.5 1 0.6 1.3 0 0.2 0.1 0.4 0.2 0.4 0 0 0.2-0.2 0.4-0.6 0.2-0.3 0.8-1.3 1.3-2.1 0.5-0.9 0.9-1.6 0.9-1.7 0 0-0.2-0.1-0.6-0.3-0.3-0.2-0.8-0.5-1.1-0.9-0.3-0.3-0.9-1-1.2-1.5-0.4-0.5-0.7-0.9-0.7-1 0 0 0.4-0.7 1-1.5 0.5-0.8 1.1-1.7 1.4-2.1 0.3-0.3 0.9-1.1 1.3-1.7 0.5-0.6 0.9-1 1-1 0.1 0 0.7 0.2 1.3 0.3 0.6 0.2 1.3 0.5 1.6 0.6 0.3 0.2 0.8 0.5 1.1 0.7 0.5 0.4 0.6 0.4 0.7 0.3 0.1-0.1 0.4-0.5 0.8-1 0.4-0.5 1.2-1.5 1.8-2.1 0.5-0.6 0.9-1.2 0.9-1.2-0.1 0-0.3 0-0.5 0-0.2 0-0.9-0.1-1.5-0.2-0.7-0.2-2-0.4-2.9-0.6-0.9-0.2-5-1.2-9-2.3-4.1-1-7.4-1.8-7.5-1.8 0 0-0.5 0.7-1.1 1.5zm176.7 0.4c-2.8 0.7-7.2 1.8-9.7 2.4-4 1-4.7 1.1-5.5 1.1-0.5 0-0.9 0-0.9 0.1 0 0 0.4 0.5 0.8 1 0.4 0.5 1.2 1.4 1.6 2l0.8 0.9c0.8-0.8 1.4-1.1 1.8-1.3 0.4-0.2 1-0.5 1.5-0.6l0.8-0.2q1.2 1.3 1.9 2.2c0.5 0.6 1.4 1.9 1.9 2.7 0.6 0.9 1.1 1.6 1.1 1.7 0 0-0.3 0.4-0.6 0.8-0.3 0.5-0.9 1.1-1.2 1.4-0.2 0.3-0.7 0.7-1 0.8-0.4 0.2-0.6 0.4-0.6 0.4 0 0.1 0.4 0.8 0.9 1.7 0.6 0.8 1.2 1.9 1.4 2.3 0.3 0.5 0.5 0.9 0.5 0.8 0 0 0.3-0.5 0.6-1.1 0.3-0.6 2.5-4.1 5.9-9.2q5.4-8.1 5.4-8.2c-0.1-0.1-0.6-0.8-1.1-1.6-0.6-0.8-1.1-1.4-1.1-1.4 0 0-2.4 0.5-5.2 1.3zm-67.6 158.5c-0.6 0.1-1 0.3-1.1 0.3 0 0.1-1 1.8-2.2 4l-2.2 3.8c0.3 1.4 0.4 1.9 0.4 1.9 0 0 1-0.1 2.3-0.3 1.2-0.2 2.4-0.4 2.6-0.4 0.4-0.1 0.4-0.1 0.5 0.2 0 0.1 0.1 0.7 0.2 1.3 0.1 0.6 0.2 1.1 0.3 1.1 0 0 0.5 0 1.2-0.2 1-0.1 1.1-0.2 1.1-0.4 0-0.1-0.1-0.7-0.2-1.4-0.1-0.6-0.2-1.1-0.2-1.1 0-0.1 0.5-0.2 1.1-0.3 0.7-0.1 1.2-0.2 1.2-0.2 0 0-0.1-0.6-0.2-1.2-0.1-0.6-0.1-1.1-0.1-1.1-0.1 0-0.6 0.1-1.2 0.2-0.6 0.1-1.2 0.2-1.2 0.2 0 0-0.3-1.4-0.6-3.1-0.3-1.6-0.5-3.1-0.6-3.2 0-0.2 0-0.3-0.1-0.3 0 0-0.5 0.1-1 0.2zm-34.2 0.8c-0.1 0.2-0.3 0.6-0.5 0.8-0.2 0.2-0.6 0.4-0.8 0.5-0.3 0-0.8 0.1-1.2 0h-0.7c-0.1 0.8-0.2 1.2-0.2 1.3-0.1 0.3 0 0.3 1.1 0.5 0.6 0.1 1.1 0.3 1.2 0.3 0 0.1-0.3 1.7-0.6 3.6-0.3 2-0.6 3.7-0.6 3.8v0.4c1.9 0.3 2.5 0.4 2.5 0.3 0 0 0.5-2.6 1-5.8 0.5-3.2 1-5.8 0.9-5.8 0-0.1-0.4-0.1-0.9-0.2-0.4-0.1-0.8-0.1-0.9-0.1q-0.2 0-0.3 0.4zm9.5 0.5c-0.3 0.1-0.9 0.2-1.2 0.4-0.4 0.2-0.8 0.5-1.1 0.7-0.2 0.3-0.5 0.6-0.6 0.9-0.1 0.2-0.2 0.6-0.3 0.9 0 0.3 0.1 0.7 0.2 1 0.1 0.4 0.3 0.8 0.7 1.2 0.4 0.4 0.6 0.6 0.5 0.6-0.1 0.1-0.4 0.3-0.8 0.6-0.4 0.2-0.7 0.7-0.9 1-0.2 0.3-0.3 0.7-0.4 1.1 0 0.4 0 0.7 0.1 1.2 0.2 0.5 0.4 0.8 0.8 1.2 0.3 0.3 0.8 0.7 1.1 0.9 0.2 0.1 0.8 0.4 1.1 0.5 0.4 0.1 1 0.1 1.5 0.1 0.5 0 1.1 0 1.5-0.1 0.3-0.1 0.8-0.3 1-0.4 0.2-0.1 0.6-0.4 0.8-0.6 0.3-0.2 0.6-0.6 0.8-0.9 0.2-0.4 0.2-0.6 0.2-1.4 0-0.7 0-1-0.2-1.3-0.1-0.2-0.5-0.7-0.9-1.1-0.6-0.5-0.6-0.6-0.4-0.7 0.1-0.1 0.4-0.3 0.6-0.5 0.3-0.3 0.6-0.7 0.7-0.9 0.1-0.3 0.2-0.7 0.2-1.1 0-0.4 0-0.8-0.2-1.2-0.2-0.3-0.5-0.7-0.8-1-0.2-0.2-0.6-0.5-0.9-0.6-0.3-0.1-0.7-0.3-0.9-0.4-0.3 0-0.7-0.1-1-0.1-0.4-0.1-0.9 0-1.2 0zm14.4 0.1c-1 0-2.7 0.1-3.8 0.2-1.1 0.1-2 0.1-2 0.1 0 0.1 0 0.6 0.1 1.2l0.1 1.2c1.3 0 2.5-0.1 3.6-0.1 1.1-0.1 2-0.1 2-0.1 0 0-1 2.1-2.3 4.6-1.3 2.6-2.3 4.7-2.3 4.8 0 0.2 0 0.3 1.3 0.2h1.3l4.4-9.9c-0.2-2.1-0.2-2.4-0.3-2.4-0.1 0-1 0.1-2.1 0.2z"/>
		<path class="s0" d="m121.7 40.6c-1.2 0.1-3 0.2-4.1 0.3-1 0.1-2.6 0.3-3.5 0.4-0.9 0.1-2.3 0.3-3.2 0.5-0.8 0.1-2.2 0.4-3.1 0.6-0.8 0.1-2.2 0.4-3 0.6-0.8 0.2-2.1 0.6-2.8 0.8-0.7 0.2-2.1 0.6-3.1 0.9-1 0.4-2.6 0.9-3.6 1.3-1 0.4-2.4 0.9-3.2 1.3-0.7 0.3-2.1 0.9-3 1.3-1 0.5-2.5 1.2-3.5 1.8-0.9 0.5-2.4 1.3-3.3 1.8-0.8 0.5-2.4 1.5-3.5 2.2-1 0.7-2.5 1.7-3.3 2.3-0.8 0.5-2.2 1.6-3.2 2.4-1 0.8-2.5 2.1-3.3 2.8-0.8 0.7-2 1.8-2.7 2.5-0.7 0.7-2 1.9-2.8 2.8-0.8 0.9-2 2.2-2.6 2.9-0.6 0.7-1.5 1.9-2.1 2.6-0.5 0.7-1.4 1.9-2 2.6-0.6 0.8-1.5 2.2-2.1 3.1-0.6 0.8-1.5 2.2-2 3-0.5 0.9-1.3 2.3-1.8 3.2-0.5 0.9-1.1 2.1-1.4 2.7-0.3 0.6-0.9 1.8-1.4 2.8-0.4 1-1.1 2.6-1.5 3.6-0.4 1-1 2.5-1.3 3.4-0.3 0.8-0.8 2.3-1.1 3.3-0.3 0.9-0.7 2.6-1 3.7-0.3 1.2-0.7 3-1 4.2-0.2 1.2-0.5 2.9-0.7 3.9-0.1 0.9-0.3 2.6-0.4 3.6-0.1 1.1-0.3 2.7-0.4 3.7 0 0.9-0.1 3.4-0.1 5.5 0 2.1 0.1 4.6 0.1 5.5 0.1 1 0.2 2.5 0.3 3.3 0.1 0.9 0.3 2.4 0.4 3.4 0.2 1 0.5 2.8 0.7 4 0.3 1.2 0.7 3.2 1 4.3 0.3 1.2 0.8 3 1.1 4 0.3 1.1 0.8 2.7 1.2 3.6 0.3 0.9 0.9 2.4 1.2 3.3 0.4 0.8 0.9 2.2 1.3 3 0.4 0.9 1 2.3 1.5 3.2 0.4 0.9 1.1 2.1 1.5 2.8 0.3 0.6 1 1.8 1.5 2.7 0.5 0.8 1.5 2.5 2.3 3.6 0.7 1.1 2 2.9 2.8 3.9 0.7 1 1.9 2.5 2.6 3.4 0.7 0.8 1.8 2 2.4 2.8 0.7 0.7 2.2 2.3 3.4 3.4 1.2 1.2 2.9 2.7 3.7 3.5 0.9 0.7 2.2 1.9 3.1 2.5 0.8 0.7 2.1 1.6 2.7 2.1 0.6 0.5 1.9 1.4 2.9 2 1 0.7 2.3 1.5 3 1.9 0.7 0.4 1.8 1.1 2.6 1.6 0.8 0.4 2.4 1.2 3.4 1.8 1.1 0.5 2.7 1.2 3.5 1.6 0.9 0.4 2.3 1 3.3 1.4 0.9 0.3 2.7 1 3.9 1.4 1.2 0.4 3.2 1 4.3 1.3 1.1 0.4 2.8 0.8 3.7 1 0.9 0.2 2.5 0.5 3.6 0.7 1 0.2 2.8 0.5 3.8 0.7 1.1 0.1 2.8 0.3 3.7 0.4 0.9 0.1 2.6 0.2 3.7 0.3 1.1 0 3 0.1 4.2 0.1 1.2 0 3.1-0.1 4.2-0.1 1.1-0.1 2.8-0.2 3.7-0.3 0.9-0.1 2.6-0.3 3.7-0.4 1-0.2 2.8-0.5 3.9-0.7 1.1-0.2 2.7-0.5 3.5-0.7 0.9-0.2 2.6-0.6 3.7-1 1.1-0.3 3.1-0.9 4.3-1.3 1.2-0.4 3-1.1 3.9-1.4 1-0.4 2.4-1 3.3-1.4 0.8-0.4 2.4-1.1 3.5-1.6 1-0.6 2.6-1.4 3.4-1.8 0.8-0.5 1.9-1.2 2.6-1.6 0.7-0.4 2-1.2 3-1.9 1-0.6 2.3-1.5 2.9-2 0.6-0.5 1.9-1.4 2.7-2.1 0.9-0.6 2.2-1.8 3.1-2.5 0.8-0.8 2.5-2.3 3.7-3.5 1.2-1.1 2.7-2.7 3.4-3.4 0.6-0.8 1.7-2 2.4-2.8 0.7-0.9 1.9-2.4 2.6-3.4 0.8-1 2.1-2.8 2.8-3.9 0.8-1.1 1.8-2.8 2.3-3.6 0.5-0.9 1.2-2.1 1.5-2.7 0.4-0.7 1.1-1.9 1.5-2.8 0.5-0.9 1.1-2.3 1.5-3.2 0.4-0.8 0.9-2.2 1.3-3 0.3-0.9 0.9-2.4 1.2-3.3 0.4-0.9 0.9-2.5 1.2-3.6 0.3-1 0.8-2.8 1.1-4 0.3-1.1 0.7-3.1 1-4.3 0.2-1.2 0.5-3 0.7-4 0.1-1 0.3-2.5 0.4-3.4 0.1-0.8 0.2-2.3 0.3-3.2 0-1 0.1-3.4 0.1-5.5 0-2.1-0.1-4.7-0.1-5.6-0.1-1-0.3-2.6-0.4-3.7-0.1-1-0.3-2.7-0.4-3.6-0.2-1-0.5-2.7-0.7-3.9-0.3-1.2-0.7-3-1-4.2-0.3-1.1-0.7-2.8-1-3.7-0.3-1-0.8-2.5-1.1-3.3-0.3-0.9-0.9-2.4-1.3-3.4-0.4-1-1.1-2.6-1.5-3.6-0.5-1-1.1-2.2-1.4-2.8-0.3-0.6-0.9-1.8-1.4-2.7-0.5-0.9-1.3-2.3-1.8-3.2-0.5-0.8-1.4-2.1-1.9-3-0.6-0.8-1.4-2-1.8-2.5-0.4-0.6-1.2-1.6-1.7-2.3-0.5-0.7-1.5-2-2.2-2.8-0.7-0.8-1.9-2.2-2.8-3.1-0.8-0.9-2.1-2.3-2.9-3-0.8-0.8-2.1-2-3-2.8-0.8-0.7-2.3-2-3.3-2.8-1-0.8-2.4-1.9-3.2-2.4-0.8-0.6-2.3-1.6-3.3-2.3-1.1-0.7-2.7-1.7-3.5-2.2-0.9-0.5-2.4-1.3-3.3-1.8-1-0.6-2.5-1.3-3.5-1.8-0.9-0.4-2.3-1-3.1-1.4-0.9-0.3-2.4-0.9-3.4-1.3-0.9-0.4-2.7-1-3.8-1.3-1.1-0.4-2.8-0.9-3.8-1.1-1-0.3-2.5-0.7-3.4-0.9-0.9-0.2-2.4-0.5-3.2-0.6-0.8-0.2-2.3-0.4-3.3-0.6-1-0.1-2.5-0.3-3.3-0.4-0.9-0.1-2.3-0.2-3.2-0.2-1-0.1-2.8-0.2-4.2-0.2-1.3 0-3.4 0-4.5 0z"/>
		<path fill-rule="evenodd" class="s1" d="m89.7 21.7c1.2 0 1.2 0 2.1 0.5 0.8 0.3 1.2 0.6 1.7 1.1 0.4 0.4 0.9 1.1 1.2 1.6 0.2 0.5 0.6 1.2 0.8 1.7 0.2 0.4 0.5 1.3 0.6 1.8 0.2 0.8 0.3 1.3 0.3 2.2 0 0.6-0.1 1.3-0.2 1.6 0 0.3-0.2 0.8-0.4 1.2-0.2 0.4-0.6 0.9-0.8 1.2-0.3 0.3-0.8 0.7-1.2 0.9-0.3 0.3-0.9 0.5-1.3 0.7-0.4 0.1-1 0.2-1.6 0.3-0.6 0-1 0-1.6-0.1-0.3-0.1-0.9-0.4-1.2-0.6-0.3-0.2-0.9-0.6-1.2-0.9-0.4-0.3-0.9-1-1.3-1.5-0.3-0.5-0.7-1.3-0.9-1.7-0.2-0.5-0.5-1.3-0.6-1.7-0.1-0.5-0.2-1.4-0.2-2-0.1-0.7 0-1.4 0-1.9 0.1-0.4 0.3-1.1 0.5-1.5 0.2-0.4 0.6-0.9 0.9-1.3 0.4-0.3 0.9-0.7 1.3-0.9 0.5-0.2 1-0.5 1.4-0.6 0.4-0.1 0.9-0.1 1.7-0.1zm16.9 30.6l0.6 0.6c0.4 0.5 0.7 0.7 1.2 0.9 0.6 0.3 0.7 0.3 4.8 0.3 3.5 0 4.2 0 5.1 0.2 0.5 0.1 1.3 0.3 1.7 0.4 0.4 0.2 0.9 0.5 1.2 0.7 0.3 0.1 0.8 0.6 1.1 0.9 0.3 0.3 0.7 0.8 0.8 1.1 0.2 0.3 0.3 0.8 0.4 1.1 0 0.4 0.1 0.6 0.1 0.6 0 0 1.1 0.2 2.5 0.4 1.3 0.2 2.8 0.5 3.3 0.6 0.6 0.2 1.3 0.4 1.6 0.6 0.4 0.2 0.8 0.5 1 0.6 0.2 0.2 0.4 0.5 0.5 0.7 0.1 0.2 0.2 0.6 0.2 0.9 0 0.3-0.1 0.7-0.1 0.9-0.1 0.3-0.1 0.3 0.4 0.3 0.3 0 1 0.1 1.6 0.1 0.6 0.1 1.4 0.3 1.9 0.4 0.5 0.1 1.3 0.4 1.9 0.6 0.6 0.2 1.5 0.5 2 0.8 0.5 0.2 1.2 0.6 1.7 0.9 0.4 0.2 0.9 0.5 1 0.7 0.2 0.1 0.3 0.3 0.3 1.2l-0.6-0.2c-0.3-0.1-0.9-0.2-1.4-0.2-0.5 0-1.2 0-1.6-0.1-0.4 0-1-0.2-1.2-0.3-0.2-0.1-0.5-0.3-0.7-0.4-0.3-0.3-0.4-0.3-0.4-0.2 0 0.1 0.1 0.4 0.2 0.8 0.1 0.3 0.4 0.7 0.6 0.8 0.2 0.2 0.6 0.4 0.9 0.5 0.3 0.1 1 0.3 1.5 0.4 0.6 0.1 1.2 0.3 1.4 0.4 0.2 0.1 0.5 0.3 0.6 0.5 0.1 0.2 0.1 0.6 0.1 1q0 0.7-0.2 1.2c-0.1 0.2-0.4 0.6-0.7 0.8-0.3 0.3-0.8 0.6-1.1 0.8-0.7 0.3-0.7 0.3-0.8 0.8 0 0.2-0.1 0.7-0.2 0.9-0.1 0.3-0.3 0.8-0.5 1-0.1 0.2-0.5 0.5-0.7 0.7-0.3 0.1-0.6 0.2-0.7 0.2-0.2 0-0.3 0-0.2-0.3 0-0.1 0.1-0.6 0.1-1 0-0.4-0.1-1-0.4-1.8l-0.6-0.2c-0.4 0-1-0.3-1.3-0.4-0.4-0.2-0.9-0.5-1.5-0.9l-0.6 0.2c-0.2 0.1-0.9 0.4-1.3 0.6-0.5 0.2-1.2 0.6-1.6 0.8-0.4 0.3-1 0.8-1.3 1-0.3 0.3-0.6 0.8-0.7 1-0.1 0.4-0.1 0.7-0.1 1.2 0.1 0.3 0.2 0.9 0.3 1.2 0.2 0.4 0.4 0.9 0.6 1.3 0.2 0.3 0.7 0.8 1 1.2 0.4 0.4 1 0.9 1.4 1.2 0.4 0.3 1.1 0.6 1.5 0.7 0.3 0.1 0.8 0.3 1.1 0.3 0.3 0 0.5-0.2 1-0.6 0.4-0.2 0.8-0.7 1.1-1 0.2-0.4 0.5-1 0.6-1.4 0.2-0.5 0.3-0.9 0.3-1 0-0.1 0-0.2 0.1-0.2 0 0 0.1 0.1 0.2 0.2 0.1 0.1 0.3 0.4 0.5 0.7 0.1 0.3 0.2 0.7 0.2 1.3 0.1 0.5 0 1 0 1.2-0.1 0.4-0.1 0.4 0.1 0.4 0.2 0 0.5 0.1 0.8 0.2 0.2 0.1 0.5 0.3 0.6 0.5 0.1 0.1 0.2 0.4 0.2 0.6 0 0.2-0.1 0.7-0.2 1-0.1 0.4-0.3 1-0.4 1.3-0.2 0.3-0.5 0.8-0.8 1.2-0.2 0.3-0.7 0.9-1.1 1.2-0.4 0.4-0.9 0.8-1.6 1.3l-0.2-0.5c0-0.3-0.2-0.6-0.5-0.9-0.2-0.2-0.6-0.5-0.9-0.7-0.3-0.1-0.9-0.3-1.3-0.3-0.4-0.1-1.6-0.2-2.6-0.3-1.4-0.1-2.2-0.2-3-0.4-0.6-0.1-1.5-0.5-2.1-0.7-0.8-0.4-1.2-0.7-1.9-1.4-0.6-0.6-1.1-1.2-1.3-1.6-0.2-0.4-0.5-1.1-0.6-1.5-0.2-0.5-0.3-1.1-0.4-1.5 0-0.4-0.1-0.8-0.2-0.8 0 0-0.1 0.2-0.1 0.3-0.1 0.1-0.2 0.5-0.2 0.8 0 0.2 0 0.9 0 1.4 0.1 0.5 0.3 1.3 0.5 1.8 0.2 0.6 0.4 1.2 0.6 1.5 0.1 0.2 0.4 0.7 0.6 0.9 0.2 0.3 0.3 0.5 0.3 0.5-0.1 0-0.3 0-0.5-0.1-0.3 0-0.7-0.2-1-0.3-0.3-0.1-0.7-0.4-0.9-0.6-0.3-0.2-0.7-0.7-1-1.1-0.3-0.3-0.8-1-0.9-1.4-0.2-0.4-0.5-1.1-0.6-1.6-0.2-0.6-0.2-1.2-0.2-2.2 0-0.8 0-1.7 0.1-2 0-0.4 0.1-0.9 0.2-1.6l-0.2 0.2c-0.2 0.2-0.4 0.6-0.6 1.1-0.2 0.4-0.5 1.1-0.6 1.5-0.1 0.5-0.2 1.3-0.3 1.8-0.1 0.5-0.1 1.2-0.1 2.2l-0.3-0.3c-0.1-0.2-0.5-0.8-0.7-1.3-0.3-0.5-0.5-1.3-0.6-1.8-0.1-0.6-0.2-1.4-0.2-2.1 0-0.6 0-1.5 0.1-1.9 0.1-0.5 0.3-1.1 0.5-1.5 0.1-0.5 0.5-1.1 0.8-1.5 0.2-0.4 0.7-0.9 1-1.1 0.3-0.3 0.8-0.7 1.1-0.9 0.6-0.4 0.6-0.4 0.3-0.4-0.1 0-0.7 0.1-1.2 0.3-0.5 0.1-1.2 0.5-1.5 0.7-0.3 0.2-0.9 0.7-1.3 1.1-0.4 0.4-0.8 1-1 1.5-0.2 0.5-0.5 1.2-0.6 1.7-0.1 0.5-0.3 1.2-0.3 1.7 0 0.4 0 1.3 0.1 1.9 0 0.7 0.2 1.7 0.3 2.2 0.2 0.6 0.5 1.4 0.7 1.9 0.2 0.4 0.6 1.1 0.9 1.5 0.3 0.3 0.8 0.9 1.2 1.3 0.4 0.4 1.1 0.9 1.6 1.2 0.4 0.3 1.1 0.7 1.5 0.9 0.3 0.2 1.1 0.5 1.7 0.7 0.5 0.3 1.6 0.7 2.4 0.9 0.8 0.2 2.1 0.6 3 0.8 0.9 0.3 2.6 0.8 4 1.1 1.3 0.4 3 0.9 3.8 1.1 0.8 0.3 2 0.7 2.7 1 0.6 0.3 1.7 0.8 2.4 1.1 0.6 0.4 1.6 1 2.2 1.3 0.6 0.4 1.4 1.1 1.9 1.5 0.5 0.4 1.3 1.2 1.7 1.7 0.4 0.5 1.1 1.3 1.4 1.8 0.4 0.5 0.9 1.5 1.2 2.1 0.3 0.7 0.7 1.7 0.9 2.2 0.2 0.6 0.4 1.4 0.6 1.9 0.1 0.6 0.2 1.3 0.3 2.6l-0.3-0.2c-0.2-0.1-1.1-0.7-2.1-1.2-0.9-0.6-2.6-1.5-3.7-2.1-1.2-0.5-2.7-1.2-3.4-1.5-0.7-0.3-1.9-0.7-2.6-1-0.7-0.2-1.9-0.5-2.6-0.7-0.6-0.2-1.8-0.4-2.5-0.5-0.6-0.2-1.4-0.3-1.6-0.3-0.2 0-0.4 0.1-0.3 0.1 0 0.1 0.7 0.3 1.4 0.6 0.8 0.3 2 0.7 2.7 1 0.8 0.4 2.5 1.1 3.7 1.7 1.3 0.7 3.5 1.9 4.9 2.7 1.5 0.8 3.5 1.9 4.5 2.4 1 0.5 2.3 1.1 3 1.4 0.6 0.2 1.7 0.6 2.4 0.8 0.6 0.2 1.8 0.5 2.6 0.6 0.7 0.2 1.9 0.4 2.5 0.4 0.7 0.1 2.3 0.2 3.9 0.2 2.4 0 2.9-0.1 3.6-0.2 0.4-0.1 1.1-0.4 1.4-0.5 0.4-0.1 0.9-0.4 1.2-0.6 0.3-0.2 0.8-0.6 1-0.8 0.3-0.3 0.8-0.8 1.2-1.3 0.3-0.4 0.8-1.2 1.1-1.8 0.3-0.5 0.8-1.3 1.1-1.7 0.3-0.4 0.6-0.9 0.8-1.1 0.2-0.1 0.4-0.3 0.6-0.4 0.2 0 0.5-0.1 0.7-0.1 0.3 0 0.7 0.1 0.9 0.2 0.3 0.1 0.4 0.1 0.5 0 0.1-0.1 0.4-0.3 0.8-0.5 0.3-0.2 0.9-0.3 1.2-0.4 0.3 0 0.7 0 1.1 0.1 0.4 0.1 0.7 0.3 1.7 1.2l-0.6 0.1c-0.4 0-0.9 0.2-1.2 0.3-0.4 0.2-0.8 0.5-1 0.7-0.3 0.3-0.3 0.3-0.2 0.7 0.1 0.2 0.1 0.5 0.1 0.7 0 0.2-0.1 0.5-0.1 0.6-0.1 0.2-0.5 0.6-0.8 0.9-0.4 0.3-1 0.9-1.4 1.3-0.5 0.4-1 0.9-1.6 1.6l0.3-0.1c0.2 0 0.8-0.3 1.4-0.5 0.5-0.3 1.4-0.8 1.8-1.1 0.5-0.3 1.1-0.7 1.4-0.9 0.2-0.1 0.6-0.2 0.9-0.2 0.2 0 0.6 0.1 0.7 0.1 0.2 0.1 0.5 0.3 0.7 0.4 0.4 0.3 0.5 0.3 1.6 0.3 1.1 0 1.1 0 1.8 0.4 0.6 0.2 0.9 0.5 1.2 0.9 0.2 0.3 0.5 0.7 0.6 1 0.1 0.3 0.2 0.6 0.2 0.6 0 0-0.4-0.1-0.8-0.3-0.7-0.2-1-0.2-1.7-0.2q-0.9 0.1-1.4 0.3c-0.4 0.2-0.4 0.2-0.5 0.7 0 0.3-0.1 0.7-0.3 0.9-0.1 0.2-0.4 0.4-0.7 0.6-0.4 0.1-0.9 0.2-2.7 0.3q-2.2 0-2.9 0.2c-0.3 0.1-0.7 0.2-0.8 0.3-0.1 0-0.1 0.1 0.1 0.1 0.1 0.1 0.8 0.2 1.5 0.3 0.7 0.1 2.1 0.3 3 0.4 1 0 1.8 0.2 1.9 0.3 0.2 0.1 0.5 0.3 0.7 0.5 0.2 0.2 0.4 0.6 0.5 0.9 0.1 0.4 0.2 0.5 0.7 0.7 0.2 0.2 0.7 0.6 1 0.9 0.4 0.3 0.7 0.7 0.8 1 0.1 0.2 0.2 0.7 0.3 0.9 0 0.3 0 0.8-0.1 1.2 0 0.4-0.1 0.8-0.2 0.8 0 0-0.1-0.1-0.2-0.4-0.1-0.2-0.4-0.5-0.5-0.7-0.2-0.2-0.5-0.5-0.8-0.7-0.2-0.1-0.7-0.3-1-0.4-0.4-0.1-0.5-0.1-0.7 0.2-0.1 0.2-0.5 0.4-0.8 0.5-0.4 0.2-0.7 0.3-1.1 0.3q-0.5-0.1-2-0.9c-0.8-0.4-1.9-0.8-2.3-0.9-0.5-0.1-1.1-0.3-1.5-0.3-0.3 0-0.7-0.1-0.8-0.1-0.2 0-0.3 0-0.3 0 0 0.1 0.6 0.5 1.3 0.9 0.7 0.4 1.5 1 1.8 1.2 0.3 0.2 0.6 0.6 0.8 0.8q0.3 0.5 0.3 0.9c0 0.2-0.1 0.6-0.2 0.8-0.2 0.4-0.1 0.4 0.1 1.1 0.2 0.5 0.3 0.9 0.3 1.4 0 0.5 0 0.7-0.3 1.2-0.2 0.3-0.5 0.7-0.8 0.9-0.3 0.2-0.5 0.4-0.5 0.4-0.1 0-0.1-0.2 0-0.5 0-0.2-0.1-0.7-0.1-1-0.1-0.3-0.3-0.8-0.8-1.7l-0.5 0.1c-0.3 0-0.8 0.1-1.2 0.1-0.5 0-0.7-0.1-1.1-0.3-0.2-0.2-0.8-0.8-1.3-1.5-0.5-0.7-1.2-1.4-1.4-1.6-0.3-0.3-0.7-0.6-1-0.8-0.3-0.2-0.9-0.5-1.4-0.6-0.8-0.3-1-0.3-2.6-0.3-1.1 0-2.2 0.1-2.9 0.2-0.7 0.1-1.8 0.3-2.5 0.4-0.7 0.2-1.9 0.5-2.7 0.7-0.8 0.3-2.2 0.7-3.1 1-0.8 0.4-2.3 1-3.2 1.4-1 0.4-1.7 0.6-1.8 0.6 0-0.1-0.1-0.3-0.2-0.6-0.1-0.3-0.1-0.8-0.1-1.3 0-0.8 0.1-1 0.8-2.5h-0.6c-0.3-0.1-1.3-0.1-2.1-0.2-0.9 0-2.9-0.1-4.5-0.2-1.7 0-3.9 0-5 0-1.1 0.1-2.3 0.1-2.7 0.2-0.4 0.1-1 0.2-1.3 0.3-0.3 0.1-0.6 0.2-0.7 0.3-0.2 0.1-0.3 0.1-0.4 0-0.1-0.1-0.1-0.5-0.1-1.1 0-0.6 0-0.9 0.2-1.3 0.1-0.3 0.3-0.7 0.4-0.8 0.2-0.1 0.2-0.1-0.4-0.3-0.3 0-1-0.2-1.5-0.4-0.5-0.2-1.4-0.6-2-0.9-0.6-0.3-1.5-0.9-2.1-1.3-0.5-0.4-1.6-1.2-2.2-1.9-0.7-0.7-1.5-1.6-1.8-1.9-0.3-0.4-0.6-0.7-0.6-0.7 0 0.1 0.1 0.5 0.2 0.9 0.2 0.4 0.5 1.1 0.7 1.5 0.2 0.4 0.6 1 1 1.5 0.3 0.4 0.9 1.1 1.4 1.6 0.5 0.4 1.2 1 1.6 1.3 0.5 0.3 1.1 0.7 1.5 0.9 0.3 0.1 0.9 0.4 1.3 0.5q0.7 0.2 0.7 0.4c-0.1 0-0.2 0.4-0.2 0.7-0.1 0.4 0 1 0 1.5 0.1 0.5 0.2 1.1 0.3 1.3 0.1 0.3 0.3 0.6 0.4 0.7 0.2 0.2 0.2 0.2 0.6 0 0.2-0.1 0.7-0.3 1.2-0.4 0.4-0.2 1.3-0.3 2.1-0.4 0.9-0.1 2.4-0.1 4.7 0 1.9 0 3.5 0.1 3.7 0.1 0.3 0.1 0.2 0.2-1.9 1.6-1.2 0.9-3.2 2.2-4.3 3-1.1 0.7-2.8 1.8-3.7 2.3-0.8 0.6-2.2 1.4-3 1.8-0.7 0.5-1.3 0.8-1.3 0.9 0 0 0.6-0.2 1.4-0.4 0.7-0.2 2.2-0.5 3.2-0.8 1-0.2 2.5-0.5 3.3-0.7 0.9-0.1 2.1-0.3 2.8-0.3 0.7-0.1 1.9-0.2 2.9-0.1 1 0 2.2 0.1 2.7 0.2 0.6 0.1 1.5 0.4 2.1 0.6 0.6 0.2 2 0.8 3.1 1.3 1.1 0.5 2.3 1.1 2.7 1.2 0.4 0.1 1.1 0.3 1.5 0.4 0.6 0.1 1 0.1 1.4 0 0.3-0.1 0.7-0.2 0.9-0.2 0.1-0.1 0.5-0.3 1.1-0.9l0.1 0.5c0.1 0.2 0.1 0.7 0.1 1.1 0 0.3-0.2 0.9-0.3 1.1-0.1 0.3-0.4 0.7-0.7 0.9-0.2 0.3-0.7 0.6-1 0.8-0.4 0.1-0.8 0.3-1 0.3-0.1 0-0.3 0-0.3 0.1 0 0 0.1 0.2 0.2 0.4 0.2 0.2 0.6 0.5 1 0.7 0.3 0.1 0.9 0.3 1.3 0.4 0.4 0 0.8 0.1 0.8 0.1 0.1 0.1 0 0.3-0.1 0.5-0.1 0.3-0.4 0.7-0.6 0.9-0.2 0.3-0.7 0.6-1 0.7-0.3 0.2-0.8 0.3-1.1 0.4-0.3 0-0.9 0-1.1-0.1-0.3 0-0.6-0.1-0.7-0.1-0.2-0.1-0.2 0.1-0.2 1.5 0 1.4 0 1.8-0.2 2.5-0.2 0.5-0.7 1.7-1.2 2.7-0.5 1-1.1 2.2-1.2 2.6-0.2 0.7-0.3 1.1-0.2 1.8 0 0.8 0 1.2 0.2 1.7 0.1 0.3 0.4 0.8 0.6 1.1 0.2 0.3 0.5 0.7 0.8 0.9 0.2 0.3 0.7 0.6 1 0.8 0.3 0.1 0.8 0.3 1.1 0.4 0.3 0.1 0.9 0.1 1.4 0.1 0.4 0 1.1 0 1.6-0.1 0.4-0.1 1.1-0.3 1.5-0.5 0.4-0.2 1.1-0.5 1.5-0.8 0.4-0.3 1-0.9 1.4-1.2 0.3-0.4 0.8-1.1 1-1.5 0.2-0.4 0.5-1.1 0.7-1.6 0.2-0.6 0.5-1.2 0.6-1.5 0.1-0.2 0.4-0.6 0.6-0.8 0.3-0.2 0.6-0.4 0.8-0.4 0.2-0.1 0.6-0.2 0.8-0.2 0.3-0.1 0.4-0.2 0.6-0.5 0.1-0.2 0.5-0.6 0.8-0.8 0.3-0.2 0.8-0.4 1.1-0.5 0.4 0 0.8 0 1.1 0 0.3 0 0.7 0.2 0.9 0.3 0.2 0.1 0.5 0.2 0.6 0.3 0.1 0.2 0 0.2-0.3 0.2-0.2 0.1-0.6 0.2-0.8 0.3-0.2 0.1-0.6 0.4-0.8 0.6-0.3 0.2-0.7 0.7-0.9 1-0.3 0.4-0.9 1.4-1.3 2.4-0.5 0.9-0.8 1.7-0.8 1.7 0.1 0 0.2 0 0.3-0.1 0.1-0.1 0.7-0.8 1.4-1.7 0.7-0.8 1.5-1.7 1.8-1.9 0.2-0.2 0.7-0.5 0.9-0.6 0.2-0.2 0.6-0.2 1-0.2 0.3 0 0.7 0 0.9 0.1 0.2 0.1 0.4 0.3 0.5 0.3 0.1 0.2 0.3 0.2 0.7 0 0.4-0.1 0.9-0.1 1.3-0.1 0.4 0 0.9 0.1 1.3 0.3 0.3 0.2 0.8 0.5 1 0.7 0.3 0.3 0.6 0.6 0.9 1.3l-0.7-0.2c-0.5-0.1-0.8-0.1-1.2 0-0.3 0.1-0.8 0.3-1.1 0.5-0.5 0.3-0.6 0.3-1.7 0.3-0.8 0-1.3 0.1-1.6 0.2-0.3 0.1-0.6 0.3-0.8 0.4-0.1 0.1-0.9 1-1.6 1.8-0.7 0.9-1.3 1.6-1.2 1.6 0 0.1 0.2 0 0.4-0.1 0.2-0.1 1-0.6 1.6-1.1 0.7-0.6 1.5-1.1 1.8-1.2 0.5-0.3 0.8-0.3 1.4-0.3 0.5 0 0.8 0 1.2 0.2 0.3 0.2 0.6 0.4 0.7 0.5 0.1 0.1 0.5 0.1 1.4 0.2 0.9 0 1.4 0.1 1.7 0.3 0.3 0.1 0.7 0.4 1 0.6 0.3 0.3 0.6 0.7 0.8 1.1 0.1 0.4 0.3 0.8 0.4 1.4l-0.3-0.2c-0.2-0.1-0.5-0.3-0.8-0.4-0.2-0.1-0.6-0.2-0.9-0.3-0.2 0-0.7 0-1 0.1-0.3 0.1-0.8 0.3-1.2 0.5-0.6 0.3-0.8 0.3-1.5 0.3-0.4 0-1.2 0-2.5-0.1l-0.7 0.5c-0.4 0.3-1.1 0.8-1.5 1.1-0.4 0.3-1 0.7-1.4 0.9-0.6 0.4-0.6 0.4-0.3 0.4 0.2 0 0.6 0 1.1-0.1 0.4-0.1 1.2-0.5 1.9-0.7 1.2-0.6 1.3-0.6 2.3-0.6 0.9 0 1.1 0 1.5 0.2 0.2 0.2 0.5 0.4 0.7 0.6 0.2 0.2 0.3 0.5 0.4 0.7 0.1 0.4 0.1 0.5 0.4 0.5 0.2 0 0.5 0 0.8 0.1 0.3 0.1 0.8 0.3 1 0.5 0.3 0.2 0.6 0.6 0.7 0.9 0.2 0.3 0.3 0.8 0.3 1.1 0.1 0.3 0.1 0.7 0 0.7q0 0.2-0.5-0.3-0.5-0.4-1.2-0.6c-0.5-0.1-1-0.2-2.4-0.2l-0.4 0.4c-0.2 0.3-0.7 0.7-1 1-0.4 0.3-1.1 0.7-1.6 0.9-0.4 0.3-1.2 0.6-1.7 0.7-0.7 0.2-1.1 0.2-2.7 0.2-1.9 0-2 0-3.7-0.4-1-0.3-2.2-0.5-2.6-0.6-0.4 0-1.3-0.1-2-0.1-1.1 0-1.5 0.1-1.9 0.2-0.4 0.2-0.7 0.4-0.9 0.6-0.2 0.3-0.3 0.6-0.3 1q-0.1 0.5 0.1 0.9c0.1 0.2 0.3 0.4 0.4 0.6 0.2 0.1 0.2 0.3 0.2 0.3-0.1 0-0.7 0.1-1.5 0.1-1.3 0-1.5-0.1-3-0.5-0.9-0.2-2-0.5-2.5-0.6-0.5-0.1-1.5-0.2-2.2-0.2-0.8 0-1.8 0-2.5 0-0.6 0.1-1.8 0.3-2.6 0.5-0.9 0.2-1.9 0.4-2.3 0.5-0.4 0-1 0-1.4-0.1-0.3 0-0.8-0.2-1.1-0.4-0.2-0.2-0.5-0.3-0.5-0.4 0 0 0.3-0.2 0.7-0.4 0.4-0.2 1-0.6 1.3-0.9 0.3-0.3 0.6-0.5 0.6-0.5 0-0.1-0.6-0.1-1.2-0.2-0.6 0-1.5-0.1-2-0.3-0.5-0.1-1.2-0.3-1.5-0.5-0.4-0.2-0.9-0.6-1.2-0.8-0.3-0.2-0.6-0.6-0.7-0.8-0.1-0.3-0.1-0.5-0.1-0.5 0.1-0.1 0.3-0.2 0.5-0.2 0.3-0.1 0.8-0.4 1.2-0.6 0.5-0.2 1.1-0.6 1.4-0.9 0.3-0.2 0.8-0.7 1.1-1 0.3-0.3 0.7-0.8 0.9-1 0.2-0.3 0.4-0.8 0.6-1 0.1-0.3 0.4-1 0.5-1.5 0.3-0.7 0.3-1.1 0.4-2.3 0-1.2 0-1.6-0.2-2.4-0.1-0.5-0.4-1.3-0.6-1.7-0.2-0.4-0.5-1-0.7-1.4-0.3-0.3-0.8-0.9-1.1-1.3-0.4-0.4-1-0.9-1.4-1.1-0.3-0.2-0.9-0.6-1.3-0.8-0.4-0.2-1.2-0.4-1.7-0.6-0.8-0.1-1.3-0.2-2.3-0.2-0.7 0-1.6 0.1-2 0.1-0.4 0.1-1.3 0.3-3.3 0.7l-0.5-0.4c-0.3-0.2-0.8-0.6-1.1-0.9-0.3-0.3-0.7-0.8-0.9-1.1-0.2-0.3-0.5-0.8-0.6-1.2-0.2-0.3-0.4-0.9-0.5-1.2-0.1-0.4-0.1-1.1-0.1-1.8 0-0.6 0-1.4 0.1-1.9 0.1-0.4 0.3-1.1 0.5-1.4 0.1-0.3 0.2-0.6 0.2-0.6 0 0-0.3 0.1-0.5 0.3-0.3 0.2-0.7 0.6-0.9 0.9-0.2 0.3-0.5 0.8-0.6 1.1-0.2 0.3-0.4 0.9-0.5 1.3-0.1 0.4-0.2 1.1-0.2 1.6 0 0.5 0.1 1.2 0.2 1.6 0.1 0.4 0.4 1 0.5 1.4 0.2 0.4 0.7 1.3 1.1 1.9 0.4 0.6 1.3 1.9 2 2.8 0.7 1 1.6 2.3 1.9 2.8 0.3 0.6 0.8 1.5 1.1 2.1 0.2 0.5 0.6 1.3 0.7 1.8 0.2 0.4 0.4 1.2 0.5 1.7 0.2 0.6 0.3 1.5 0.3 2.6 0.1 1.3 0 1.8-0.1 2.5-0.1 0.5-0.4 1.4-0.6 1.9-0.3 0.6-0.7 1.4-0.9 1.9-0.3 0.5-0.6 1.3-0.7 1.7-0.1 0.4-0.2 1-0.3 1.3 0 0.3 0 0.8 0.1 1.2 0 0.3 0.2 0.7 0.4 1 0.2 0.3 0.5 0.5 1.2 0.9l-0.3 0.4c-0.2 0.2-0.6 0.5-0.9 0.6-0.4 0.2-0.8 0.2-1.3 0.2-0.4 0-1 0-1.2-0.1-0.3-0.1-0.7-0.3-1-0.5-0.3-0.2-0.6-0.5-0.8-0.8-0.2-0.2-0.4-0.7-0.7-1.7l-0.3 0.4c-0.2 0.2-0.4 0.6-0.5 0.8q-0.2 0.5-0.2 1.5c0 0.5 0.1 1.1 0.2 1.2 0.1 0.3 0.1 0.3-0.3 0.3-0.3 0-0.7-0.1-1.1-0.2-0.3-0.1-0.8-0.3-1-0.5-0.2-0.1-0.5-0.5-0.6-0.7-0.2-0.4-0.3-0.8-0.5-2.1l-0.7 0.1c-0.4 0-1.1 0.1-1.6 0.2-0.4 0.1-1.1 0.4-1.5 0.6-0.5 0.2-1.1 0.6-1.4 1-0.3 0.3-0.8 0.8-0.9 1.1-0.2 0.4-0.5 1-0.6 1.3 0 0.4-0.1 1-0.1 1.4 0 0.4 0.1 1 0.2 1.4 0.1 0.4 0.3 1 0.5 1.3 0.2 0.3 0.7 0.9 1.1 1.3 0.4 0.5 1.1 1.1 1.6 1.4 0.4 0.4 1.3 0.9 1.8 1.2 0.6 0.3 1.5 0.6 1.9 0.8 0.4 0.1 1.1 0.3 1.4 0.4 0.4 0.1 1.1 0.1 1.7 0.1 0.6 0 1.3-0.1 1.7-0.2 0.3-0.1 1-0.3 1.4-0.5 0.4-0.2 1.2-0.7 1.8-1.1 0.6-0.4 1.3-0.8 1.5-0.9 0.3-0.2 0.8-0.2 1.2-0.2 0.3 0 0.7 0 0.8 0.1 0.2 0.1 0.3 0.1 0.6-0.1 0.2-0.1 0.6-0.3 0.8-0.4 0.3 0 0.7-0.1 0.9-0.1 0.2 0 0.6 0.1 0.9 0.1 0.3 0.1 0.7 0.4 1 0.5 0.2 0.2 0.6 0.6 1 1.2l-1-0.1c-0.8 0-1 0-1.5 0.2-0.4 0.1-1.2 0.5-1.8 1-0.7 0.4-1.4 0.8-1.7 0.9-0.3 0.2-0.5 0.3-0.5 0.4 0 0 0.1 0.1 0.2 0.1 0.1 0 0.5 0 0.7-0.1 0.3 0 1-0.3 1.7-0.5 0.6-0.3 1.5-0.5 1.8-0.6 0.5-0.2 1.1-0.2 1.6-0.2 0.7 0 0.9 0 1.2 0.2 0.3 0.1 0.6 0.5 0.8 0.8 0.3 0.4 0.5 0.6 0.7 0.6 0.1-0.1 0.4 0 0.7 0.2 0.4 0.1 0.8 0.3 1 0.5 0.2 0.2 0.5 0.6 0.7 1 0.3 0.4 0.4 0.9 0.5 2.1l-0.5-0.4c-0.3-0.2-0.7-0.5-0.9-0.6q-0.4-0.1-1.4-0.1c-0.9 0-1.1-0.1-1.6-0.4-0.2-0.2-0.7-0.4-1-0.5-0.3-0.1-0.8-0.2-1.2-0.2-0.4 0-1.1 0.1-1.7 0.3-0.6 0.2-1.7 0.5-2.4 0.8-0.8 0.2-1.4 0.5-1.5 0.5-0.1 0.1 0.1 0.1 0.5 0.1 0.4 0 1.4-0.1 2.2-0.2 1-0.1 1.9-0.2 2.4-0.2 0.7 0.1 1.1 0.2 1.5 0.3 0.3 0.2 0.7 0.4 0.9 0.7 0.2 0.2 0.5 0.5 0.6 0.8 0.1 0.3 0.3 0.4 0.9 0.7 0.4 0.2 1 0.6 1.3 0.8 0.4 0.4 0.6 0.7 0.8 1.2 0.3 0.6 0.3 0.7 0.3 1.6 0 0.5-0.1 1-0.2 1.1-0.1 0.2-0.1 0.2-0.4-0.3-0.1-0.2-0.4-0.6-0.6-0.8-0.2-0.2-0.6-0.4-0.9-0.6-0.3-0.1-0.8-0.2-1.6-0.3-0.7 0-1.3-0.1-1.5-0.2-0.2-0.2-0.6-0.4-0.8-0.6-0.3-0.3-0.7-0.5-1-0.6-0.4-0.2-1-0.2-3.3-0.2-1.6 0-3-0.1-3.1-0.1q-0.2-0.1-0.2 0.1c0 0.1 0.2 0.2 0.3 0.3 0.2 0.1 0.6 0.3 0.9 0.4 0.3 0.1 1.1 0.2 1.9 0.3 0.7 0 1.6 0.1 1.9 0.2 0.2 0.1 0.8 0.2 1.1 0.4 0.4 0.2 0.8 0.4 1 0.7 0.3 0.4 0.3 0.5 0.3 1.8l0.6 0.4c0.5 0.4 0.7 0.7 0.9 1.2 0.3 0.6 0.4 0.7 0.3 1.4 0 0.5-0.1 1-0.4 1.7l-0.3-0.5c-0.1-0.3-0.5-0.7-0.7-0.9-0.2-0.2-0.6-0.5-0.9-0.7-0.2-0.1-0.7-0.4-1.7-0.8l-0.9 0.3c-0.4 0.2-1.2 0.4-1.7 0.5-0.4 0.1-1.4 0.2-2.1 0.2-0.7 0-1.8 0-2.4-0.1-0.6 0-1.6-0.2-2.2-0.4-0.6-0.1-1.6-0.4-2.2-0.6-0.6-0.3-1.5-0.7-2-1-0.5-0.3-1.3-0.8-1.8-1.1-0.4-0.4-1.1-1-1.5-1.4-0.5-0.4-1.5-1.6-2.3-2.6-0.9-1-1.8-2-2.2-2.3-0.3-0.2-0.8-0.5-1.1-0.6-0.2-0.1-0.7-0.2-1-0.2-0.4 0-0.8 0.1-1 0.2-0.2 0-0.6 0.2-0.8 0.4-0.2 0.2-0.5 0.5-1 1.2l-0.3-0.2c-0.1-0.2-0.4-0.5-0.6-0.9-0.2-0.3-0.5-1.2-0.7-1.8-0.2-0.7-0.6-1.8-0.8-2.5-0.3-0.7-0.7-1.7-0.9-2.3-0.3-0.5-0.7-1.2-0.9-1.7-0.3-0.4-0.8-1.1-1.2-1.5-0.4-0.4-1.2-1.4-1.8-2.1-0.7-0.7-1.5-1.6-1.9-2.1-0.4-0.5-0.9-1.2-1.1-1.7-0.3-0.5-0.6-1.2-0.7-1.6-0.1-0.4-0.2-1.1-0.2-1.5-0.1-0.5-0.1-0.9 0-0.9 0 0 0.3 0.1 0.6 0.3 0.3 0.1 0.9 0.2 2 0.3l-0.3-0.4c-0.2-0.2-0.5-0.6-0.7-1-0.3-0.4-0.6-1-0.7-1.4-0.2-0.5-0.2-1-0.3-2.1 0-1 0-1.5 0.1-2q0.2-0.6 0.4-1.3l0.5 0.5c0.3 0.2 0.8 0.6 1.1 0.8 0.3 0.2 0.8 0.5 1.2 0.6 0.3 0.2 0.9 0.4 1.3 0.5 0.4 0.1 0.9 0.2 1.2 0.2 0.4 0 1 0 1.5-0.1 0.5 0 1.3-0.2 1.7-0.4 0.5-0.1 1.1-0.4 1.5-0.6 0.3-0.2 1-0.8 1.5-1.3 0.6-0.6 1-1.1 1.3-1.6 0.2-0.4 0.5-1.1 0.6-1.5 0.1-0.4 0.3-1.2 0.3-1.7 0-0.5 0-1.2-0.1-1.6 0-0.4-0.2-1.1-0.4-1.5-0.1-0.4-0.4-1-0.6-1.4-0.2-0.3-0.9-1.4-1.5-2.4-0.7-1-1.5-2.5-1.9-3.3-0.4-0.7-0.9-1.8-1-2.3-0.2-0.6-0.4-1-0.4-1 0 0-0.4 0.3-0.9 0.8-0.6 0.5-1.4 1.1-1.9 1.5-0.5 0.4-1.3 0.9-1.8 1.2-0.6 0.3-1.5 0.8-2.2 1.1-0.7 0.3-1.7 0.7-2.2 0.8-0.5 0.2-1.4 0.4-2 0.5-0.7 0.1-1.7 0.2-3 0.3-1.3 0-2.3 0-2.9-0.1-0.5-0.1-1.3-0.2-1.9-0.4-0.6-0.1-1.5-0.5-2-0.7-0.6-0.2-1.5-0.8-2.1-1.2-0.8-0.5-1.5-1-2.4-1.9-0.7-0.7-1.5-1.6-1.8-2.1-0.3-0.5-0.7-1.3-1-1.8-0.2-0.5-0.6-1.3-0.7-1.8-0.2-0.5-0.4-1.3-0.5-1.8-0.1-0.7-0.2-1.5-0.2-2.7 0-1.1 0.1-2 0.2-2.7 0.1-0.5 0.3-1.3 0.5-1.8 0.1-0.4 0.5-1.2 0.7-1.7 0.3-0.6 0.8-1.4 1.2-2 0.5-0.5 1.2-1.4 1.7-1.9 0.4-0.5 1.7-1.7 2.8-2.7 1.2-0.9 2.4-2 2.7-2.4 0.4-0.4 0.9-1 1.3-1.5 0.3-0.4 0.8-1.2 1-1.7 0.3-0.6 0.6-1.4 0.7-1.9 0.1-0.5 0.2-1.2 0.3-1.6 0-0.4 0-1.3-0.1-1.9 0-0.6-0.2-1.6-0.3-2.1-0.2-0.6-0.5-1.4-0.7-1.9-0.2-0.5-0.7-1.3-1-1.8-0.3-0.5-0.9-1.3-1.4-1.8-0.4-0.4-1.1-1.1-2.3-2l-0.9 0.4c-0.5 0.3-1.3 0.6-1.7 0.7-0.5 0.1-1.1 0.2-2 0.2-1-0.1-1.5-0.1-2.3-0.3-0.5-0.2-1.4-0.5-1.9-0.7-0.5-0.2-1.3-0.6-1.7-0.8-0.4-0.3-1.2-0.8-1.6-1.1-0.5-0.4-1.3-1.1-1.9-1.6-0.6-0.6-1.3-1.4-1.7-1.9-0.3-0.5-0.8-1.2-1-1.6-0.2-0.4-0.4-1-0.5-1.4-0.1-0.3-0.2-0.7-0.2-0.7 0-0.1 0.3 0 0.7 0.2 0.3 0.2 0.9 0.5 1.2 0.6 0.4 0.1 0.6 0.2 0.6 0.2 0-0.1-0.2-0.5-0.5-0.9-0.3-0.5-0.8-1.3-1.1-2-0.2-0.6-0.6-1.6-0.8-2.1-0.2-0.6-0.4-1.6-0.5-2.1-0.1-0.6-0.3-1.6-0.3-2.3-0.1-0.8-0.2-1.8-0.1-2.7 0-0.8 0.1-1.5 0.1-1.7 0.1-0.2 0.1-0.1 0.8 0.6 0.5 0.4 1.2 1 1.7 1.4 0.4 0.3 1.2 0.8 1.8 1.1 0.5 0.4 2 1.2 3.4 1.8 1.4 0.7 2.8 1.5 3.2 1.7 0.5 0.3 0.8 0.5 0.8 0.5 0.1 0 0-0.2-0.1-0.5-0.1-0.4-0.2-0.9-0.2-1.4 0-0.4 0.1-1 0.2-1.3 0.1-0.3 0.2-0.6 0.2-0.6 0.1 0 0.2 0.2 0.3 0.3 0.1 0.2 1.2 1.4 2.4 2.6 1.2 1.2 2.6 2.8 3.1 3.4 0.5 0.7 1.1 1.7 1.4 2.3 0.3 0.7 0.7 1.6 0.9 2.2 0.1 0.5 0.3 1.3 0.3 1.8 0.1 0.5 0.1 1.2 0.1 1.6-0.1 0.3-0.2 0.8-0.4 1.6l0.3 0.2c0.2 0.1 0.7 0.5 1.2 1 0.6 0.4 1.3 1.2 1.8 1.7 0.4 0.5 1.1 1.3 1.4 1.8 0.4 0.6 0.8 1.3 1 1.8 0.3 0.4 0.6 1.2 0.8 1.7 0.2 0.6 0.4 1.4 0.5 2 0.2 0.6 0.3 1.6 0.3 2.6 0 0.9 0 2-0.1 2.5 0 0.5-0.2 1.3-0.3 1.7-0.1 0.5-0.5 1.4-0.8 2.1-0.3 0.6-0.8 1.5-1.2 2-0.4 0.5-1 1.2-1.4 1.7-0.4 0.4-1.6 1.5-2.6 2.5-1.1 0.9-2.4 2.1-2.9 2.7-0.6 0.6-1.3 1.4-1.6 1.9-0.4 0.5-0.8 1.3-1 1.7-0.1 0.5-0.4 1.2-0.5 1.6-0.1 0.5-0.2 1.4-0.3 2.1 0 0.9 0 1.5 0.1 2.2 0.1 0.6 0.4 1.4 0.5 1.9 0.2 0.5 0.6 1.2 0.8 1.7 0.3 0.4 0.8 1.1 1.1 1.5 0.3 0.4 0.9 1 1.3 1.3 0.4 0.3 1.1 0.8 1.5 1.1 0.4 0.2 1.2 0.6 1.6 0.7 0.5 0.2 1.3 0.4 1.7 0.5 0.6 0.2 1.3 0.2 2.3 0.2 0.9 0 1.9-0.1 2.4-0.2 0.6-0.1 1.5-0.3 2.1-0.5 0.5-0.1 1.4-0.5 1.9-0.8 0.6-0.2 1.4-0.7 1.9-1 0.5-0.4 1.4-1 1.9-1.5 0.6-0.5 1.4-1.3 1.9-1.9 0.5-0.6 1.2-1.4 1.4-1.7 0.3-0.4 0.6-0.7 0.6-0.9 0.1-0.1 0.1-0.4 0.1-0.6 0-0.3 0.1-0.8 0.2-1.2 0.1-0.5 0.2-1.1 0.4-1.5 0.1-0.4 0.4-1.1 0.7-1.7 0.3-0.5 0.8-1.5 1.1-2 0.4-0.6 1.2-1.8 1.9-2.7 0.7-1 1.5-2.1 1.8-2.5 0.2-0.4 0.6-1.2 0.8-1.7 0.3-0.5 0.6-1.4 0.8-2.1 0.2-0.6 0.5-1.6 0.6-2.3 0.1-0.6 0.3-1.6 0.5-3.3l0.6-0.2c0.3-0.2 0.9-0.5 1.4-0.7 0.4-0.3 1.1-0.7 1.5-1.1 0.4-0.3 1-0.9 1.3-1.2 0.4-0.4 0.8-1.1 1.1-1.5 0.2-0.4 0.5-1.1 0.7-1.6 0.2-0.4 0.4-1.2 0.5-1.7 0.1-0.5 0.2-1.5 0.2-2.2 0-0.7-0.1-1.7-0.2-2.3-0.1-0.5-0.3-1.4-0.4-1.8-0.2-0.5-0.4-1.2-0.6-1.6-0.2-0.4-0.4-0.7-0.4-0.7-0.1 0 0 0.5 0.2 1.2 0.1 0.8 0.2 1.7 0.3 2.9 0 1.4 0 2-0.1 2.7-0.1 0.5-0.4 1.3-0.6 1.7-0.2 0.5-0.5 1.2-0.8 1.6-0.3 0.4-0.7 1-1 1.3-0.3 0.4-0.8 0.8-1.2 1.1-0.3 0.3-1 0.7-1.5 0.9-0.6 0.3-1.2 0.5-1.5 0.6-0.2 0-0.8 0.1-1.3 0.2-0.4 0-1.2 0-1.7-0.1-0.5 0-1.3-0.2-1.8-0.3-0.5-0.1-1.3-0.5-1.9-0.7-0.8-0.4-0.9-0.5-0.8-0.6 0.1-0.1 0.5-0.4 0.8-0.6 0.4-0.3 0.9-0.8 1.2-1.1 0.3-0.4 0.8-1.1 1-1.6 0.3-0.6 0.6-1.5 0.8-2 0.2-1 0.3-1.3 0.3-3.4 0-1.3-0.1-2.7-0.2-3.3 0-0.5-0.2-1.6-0.4-2.3-0.1-0.7-0.5-2-0.7-2.9-0.3-0.8-0.8-2-1-2.5-0.3-0.6-0.6-1.1-0.9-1.5l0.1 0.3c0 0.1 0.3 1 0.5 2 0.3 1 0.6 2.4 0.7 3.3 0.1 0.8 0.3 2.1 0.3 2.8 0 0.9 0 1.8-0.1 2.5 0 0.6-0.2 1.4-0.3 1.8-0.1 0.5-0.4 1.2-0.7 1.8-0.4 0.7-0.7 1.1-1.3 1.7-0.6 0.6-1 1-1.8 1.3-0.5 0.3-1.3 0.6-1.8 0.7-0.6 0.2-1.1 0.3-1.9 0.3-0.8 0-1.3-0.1-1.7-0.3-0.4-0.1-0.9-0.3-1.3-0.7l0.3-0.1c0.1-0.1 0.5-0.4 0.7-0.7 0.3-0.3 0.6-0.7 0.7-1 0.1-0.2 0.3-0.7 0.4-1 0.1-0.4 0.1-1.1 0.1-1.8 0-0.7 0-1.6-0.1-2.1-0.1-0.6-0.4-1.8-0.7-2.8-0.2-1-0.5-2.3-0.7-3-0.1-0.7-0.2-1.8-0.2-2.7-0.1-0.9 0-1.9 0-2.5 0.1-0.5 0.2-1.2 0.3-1.6 0.1-0.4 0.2-0.7 0.2-0.7-0.1 0-0.3 0.1-0.5 0.3-0.2 0.1-0.5 0.3-0.7 0.4-0.2 0.1-0.6 0.3-1 0.4-0.3 0.2-1 0.3-1.7 0.3-0.6 0-1.3 0-1.7-0.1-0.3 0-0.8-0.2-1.2-0.4-0.3-0.2-0.9-0.5-1.2-0.7-0.3-0.3-0.5-0.5-0.5-0.6 0 0 0-0.1 0.1-0.1 0.1 0 0.4-0.1 0.7-0.2 0.4-0.2 0.8-0.5 1.2-0.9 0.3-0.3 0.7-0.9 0.8-1.2 0.2-0.4 0.5-1.1 0.6-1.6 0.2-0.8 0.2-1 0.2-4.9 0.1-3.4 0.1-4.2 0.2-5 0.1-0.6 0.3-1.4 0.5-1.8 0.1-0.5 0.5-1.4 0.8-1.9 0.3-0.6 0.8-1.5 1.1-1.9 0.4-0.4 1-1.1 1.5-1.6 0.4-0.4 1-0.9 1.3-1.1q0.6-0.4 0.5-0.5c-0.1 0-0.3-0.1-0.6-0.1-0.2 0-0.7-0.1-1-0.2-0.4-0.1-0.9-0.3-1.2-0.4-0.3-0.1-0.7-0.5-1-0.7-0.3-0.3-0.6-0.7-0.8-1-0.1-0.3-0.3-0.7-0.3-1-0.1-0.5-0.1-0.5 0.1-0.5 0.1 0.1 0.4 0.1 0.6 0.2 0.2 0 0.7-0.1 1.1-0.2 0.5 0 1.2-0.3 1.6-0.5 0.6-0.3 1.1-0.8 2.9-2.6 1.2-1.2 2.4-2.4 2.8-2.6 0.3-0.3 0.9-0.7 1.3-1 0.4-0.2 1.1-0.5 1.5-0.7 0.8-0.3 0.9-0.3 2.8-0.3 1.2 0 2.1 0 2.4 0.1 0.2 0.1 0.4 0.1 0.4 0.1 0 0 0-0.2-0.2-0.4-0.1-0.2-0.2-0.6-0.3-1q-0.2-0.6-0.2-1.2c0.1-0.4 0.2-0.9 0.3-1.2zm44.9 1.3c0.1 0 0.4 1 1.5 4.5h2.4c1.6 0.1 2.5 0.1 2.5 0.2 0 0-0.9 0.7-1.9 1.4-1 0.8-1.9 1.4-1.9 1.4 0 0.1 0.3 1.1 0.7 2.4 0.4 1.2 0.7 2.3 0.7 2.3-0.1 0-0.9-0.6-2-1.4-1-0.7-2-1.4-2-1.4-0.1 0-1 0.7-2 1.4-1 0.8-1.9 1.4-2 1.4 0 0 0.1-0.3 0.2-0.8 0.1-0.4 0.5-1.4 0.8-2.3 0.3-0.9 0.5-1.6 0.4-1.6 0 0-0.9-0.7-1.9-1.4-1-0.8-1.9-1.4-1.8-1.5 0 0 1.1 0 4.7 0l0.8-2.3c0.4-1.3 0.8-2.3 0.8-2.3zm61.3 9.6q0.1 0 0.1 0c0 0-1 1.5-2.2 3.4-1.2 1.8-2.3 3.3-2.3 3.3-0.1 0-0.5-0.5-0.9-1.2-0.4-0.6-1.1-1.7-1.6-2.3-0.5-0.6-0.8-1.2-0.8-1.2 0 0 1.7-0.5 3.8-1 2.1-0.6 3.8-1 3.9-1zm-175.5 0.1c0.1 0 1.8 0.5 3.7 1 2 0.5 3.6 0.9 3.6 0.9 0 0.1-0.5 0.8-1 1.6q-0.9 1.2-2.1 3l-0.4-0.5c-0.2-0.3-1.1-1.8-2.1-3.2-1-1.4-1.8-2.7-1.8-2.7q0-0.1 0.1-0.1zm128.1 3l-0.4 0.5c-0.2 0.3-0.4 0.8-0.5 1-0.1 0.3-0.2 0.9-0.2 2l0.5 0.2c0.2 0.1 0.5 0.3 0.6 0.5 0.2 0.3 0.2 0.4 0.2 2 0 0.9-0.1 2.2-0.1 2.8 0 0.7 0.1 1.2 0.1 1.3q0.1 0.1 0.2 0c0 0 0.2-0.8 0.3-1.7 0.2-1 0.4-2 0.6-2.4 0.1-0.3 0.3-0.8 0.5-1.1q0.4-0.6 0.8-0.8c0.3-0.1 0.7-0.2 1-0.2 0.5 0 0.6-0.1 1.1-0.6 0.4-0.3 0.9-0.7 1.2-0.8 0.5-0.2 0.8-0.3 1.5-0.3 0.8 0 1 0.1 1.6 0.4 0.4 0.2 0.7 0.4 0.7 0.4 0 0.1-0.1 0.1-0.2 0.1-0.2 0-0.6 0.1-0.9 0.3-0.3 0.1-0.8 0.4-1 0.6-0.3 0.2-0.5 0.5-0.7 0.7-0.2 0.4-0.2 0.4 0.1 0.9 0.1 0.4 0.2 0.8 0.2 1.1 0 0.3-0.1 0.7-0.2 0.9-0.1 0.2-0.5 0.8-0.9 1.3-0.4 0.4-0.9 1.2-1.1 1.7-0.2 0.4-0.5 0.9-0.6 1.1 0 0.2-0.1 0.5 0 0.6 0 0.2 0 0.2 0.4-0.1 0.2-0.2 0.7-0.8 1.1-1.4 0.6-0.7 1-1.1 1.4-1.3 0.5-0.2 0.7-0.3 1.1-0.3 0.4 0 0.8 0 1 0.1 0.3 0.2 0.4 0.2 1.1-0.1 0.5-0.1 1.1-0.2 1.5-0.2 0.3 0 0.8 0 1 0.1 0.2 0 0.6 0.2 0.9 0.4 0.3 0.2 0.7 0.6 1 0.9 0.2 0.3 0.3 0.5 0.3 0.6 0 0-0.3 0-0.6-0.1-0.3-0.1-0.8-0.1-1-0.1-0.3 0-0.7 0.1-1 0.3-0.3 0.1-0.7 0.3-0.8 0.4-0.2 0.2-0.2 0.3-0.2 0.7 0.1 0.4 0 0.6-0.1 1-0.2 0.4-0.4 0.6-1 1-0.4 0.3-1.1 0.7-1.5 1-0.5 0.3-1.2 0.8-1.6 1.2-0.5 0.5-0.9 1-1.1 1.5-0.3 0.4-0.4 0.8-0.4 1.1 0 0.3 0.1 0.7 0.2 0.9 0.1 0.2 0.3 0.4 0.6 0.5 0.4 0.2 0.7 0.3 1.9 0.3 1 0.1 1.7 0.2 1.9 0.3 0.2 0.1 0.4 0.2 0.5 0.3 0.1 0.1 0.3 0.4 0.4 0.9h0.9c0.9 0 1-0.1 1.7-0.4 0.4-0.2 0.8-0.4 0.8-0.4 0 0 0 0.3-0.1 0.7 0 0.3-0.2 0.8-0.3 1.1-0.2 0.2-0.5 0.5-0.6 0.7-0.2 0.1-0.6 0.3-0.9 0.4-0.2 0.2-0.8 0.3-1.1 0.3-0.7 0.1-0.7 0.1-1.1 0.5-0.2 0.3-0.5 0.6-0.7 0.7-0.2 0.1-0.5 0.2-1 0.2-0.6 0-1-0.1-1.9-0.4-0.6-0.2-1.6-0.6-2.2-0.8-0.8-0.2-1.4-0.4-2-0.4-0.8-0.1-0.9-0.1-1.5 0.2-0.3 0.1-0.8 0.5-1.2 0.8-0.3 0.3-0.8 1-1.1 1.4-0.3 0.5-0.8 1.4-1.1 2-0.3 0.6-0.7 1.6-0.9 2.2-0.2 0.6-0.6 1.8-0.8 2.5-0.2 0.8-0.4 1.8-0.5 2.4 0 0.5-0.1 1.4 0 2.1 0 0.6 0.1 1.2 0.1 1.4 0.1 0.1 0.1 0.2-0.4 0.1-0.3-0.1-0.8-0.2-1.1-0.3-0.3-0.2-0.8-0.6-1-0.9-0.3-0.3-0.8-0.9-1-1.4-0.3-0.5-0.5-0.9-0.5-0.9 0 0.1-0.3 0.5-0.6 0.9-0.3 0.5-0.8 1.2-1.1 1.7-0.4 0.5-1.1 1.3-1.6 1.8-0.5 0.5-1.4 1.3-2 1.7-0.5 0.5-1 0.8-1 0.8-0.1 0-0.2-0.1-0.2-0.2 0-0.2-0.1-0.8-0.3-1.4-0.1-0.7-0.4-1.7-0.7-2.3-0.2-0.5-0.6-1.4-0.8-1.9-0.3-0.5-0.8-1.4-1.1-1.9-0.4-0.6-1.2-1.5-1.7-2.1-0.6-0.6-1.4-1.4-1.9-1.7-0.5-0.4-1.5-1.2-3.5-2.5l0.3-0.2c0.1-0.1 0.7-0.4 1.2-0.7 0.6-0.3 1.4-0.6 1.9-0.8 0.5-0.2 2-0.8 3.3-1.3 1.3-0.5 3.1-1.1 3.8-1.4 0.8-0.4 2-0.9 2.8-1.3 0.7-0.4 1.8-1 2.4-1.4 0.6-0.4 1.5-1.1 2-1.6 0.5-0.5 1.2-1.3 1.5-1.7 0.3-0.5 0.7-1.2 0.9-1.6 0.1-0.4 0.3-1 0.4-1.3 0.1-0.4 0.2-1.1 0.2-1.6 0.1-0.5 0-1.5 0-2.2-0.1-0.7-0.3-1.8-0.4-2.4-0.1-0.5-0.4-1.5-0.5-2q-0.3-0.9-0.3-1.7 0-0.7 0.2-1.1c0.1-0.3 0.3-0.6 0.5-0.7 0.1-0.2 0.4-0.4 0.6-0.5 0.2-0.1 0.3-0.2 0.3-0.4 0.1-0.2 0.1-0.6 0.1-0.8 0.1-0.3 0.2-0.8 0.4-1.1 0.2-0.3 0.5-0.6 0.7-0.8 0.2-0.1 0.5-0.3 0.7-0.3 0.3-0.1 0.7-0.2 1.6-0.2zm-46.3 156.1c0.1 0 0.5 0.1 0.7 0.2 0.2 0.1 0.4 0.3 0.5 0.5 0.1 0.1 0.2 0.4 0.3 0.7 0 0.3 0 0.6-0.2 0.9-0.1 0.2-0.3 0.4-0.5 0.6-0.2 0.1-0.6 0.2-0.8 0.2-0.1 0-0.5-0.1-0.7-0.2-0.2-0.1-0.5-0.3-0.6-0.5-0.1-0.2-0.2-0.5-0.2-0.8q0-0.6 0.3-0.9c0.1-0.2 0.3-0.4 0.5-0.5 0.2-0.1 0.5-0.2 0.7-0.2zm23 0.4c0 0.1 0.2 0.8 0.3 1.7 0.2 0.9 0.3 1.6 0.3 1.6-0.1 0-0.5 0.1-1.1 0.2-0.5 0.1-1.1 0.2-1.3 0.2-0.2 0-0.3 0-0.3-0.1 0 0 0.4-0.7 0.8-1.5 0.5-0.8 0.9-1.6 1.1-1.8 0.1-0.2 0.2-0.4 0.2-0.3zm-23.3 4.6c0.4 0 0.7 0.1 1 0.3 0.2 0.1 0.4 0.4 0.6 0.6q0.2 0.3 0.2 0.8c0 0.2-0.1 0.6-0.2 0.9-0.1 0.2-0.4 0.5-0.6 0.6-0.2 0.1-0.5 0.2-0.7 0.3-0.2 0-0.6 0-0.8-0.1-0.2 0-0.6-0.2-0.7-0.3-0.2-0.2-0.4-0.5-0.5-0.8q-0.2-0.4-0.2-0.8c0.1-0.2 0.2-0.5 0.3-0.7 0.1-0.2 0.4-0.5 0.6-0.6 0.3-0.1 0.6-0.2 1-0.2z"/>
		<path class="s0" d="m107.8 58.9c-0.3 0.3-0.7 0.9-0.9 1.3-0.1 0.3-0.3 0.7-0.3 0.7 0 0-0.3-0.1-0.6-0.3-0.4-0.2-1-0.4-1.3-0.5-0.4-0.1-1.1-0.2-1.6-0.2-0.7 0-1.1 0.1-1.7 0.3-0.4 0.1-0.8 0.3-0.8 0.4 0 0.1 0.2 0.1 0.8 0.1 0.5 0 1.1 0.1 1.5 0.2 0.4 0.1 1 0.3 1.3 0.5 0.4 0.2 0.9 0.6 1.1 0.9 0.2 0.3 0.5 0.7 0.7 1 0.1 0.2 0.2 0.5 0.2 0.6 0 0-0.3 0-0.6-0.1-0.4-0.1-1.3-0.2-1.9-0.2-0.9 0-1.5 0-2.2 0.1-0.6 0.1-1.3 0.3-1.7 0.5-0.4 0.1-1 0.4-1.4 0.6-0.3 0.2-0.9 0.7-1.3 1-0.3 0.4-0.6 0.7-0.5 0.7 0 0 0.4-0.1 0.8-0.3 0.5-0.2 1.1-0.5 1.4-0.6 0.4-0.1 1.1-0.3 1.5-0.3 0.5-0.1 1.3-0.2 2-0.1 0.8 0 1.3 0.1 2 0.3 0.4 0.2 1.1 0.5 1.5 0.8 0.5 0.2 0.9 0.5 1.1 0.7l0.2 0.3c-1 0.1-1.6 0.2-2.1 0.3-0.5 0.1-1.2 0.2-1.5 0.4-0.4 0.1-1 0.3-1.3 0.4-0.3 0.2-0.9 0.5-1.4 0.9-0.5 0.3-1.3 0.9-1.7 1.4-0.5 0.5-1.2 1.3-1.5 1.8-0.4 0.6-0.8 1.4-1 1.9-0.3 0.5-0.5 1.3-0.7 1.8-0.2 0.7-0.2 1.3-0.2 2.5-0.1 1.3-0.1 1.5 0 1.2 0.1-0.2 0.3-0.9 0.5-1.5 0.2-0.6 0.6-1.5 0.8-2.1 0.3-0.5 0.8-1.4 1.2-1.9 0.3-0.6 1-1.4 1.5-1.9 0.4-0.4 1.1-1.1 1.5-1.4 0.5-0.3 1.1-0.7 1.5-0.8 0.4-0.2 1.1-0.5 1.6-0.7 0.8-0.2 1.2-0.2 2.6-0.3 0.9 0 1.7 0 1.8 0.1 0.3 0 0.3 0.1-0.2 0.5-0.3 0.2-0.8 0.6-1.1 0.9-0.3 0.3-0.8 0.8-1.1 1.2-0.3 0.3-0.7 1-1 1.4-0.2 0.5-0.6 1.3-0.8 1.8-0.2 0.5-0.5 1.4-0.6 2-0.2 0.8-0.2 1.5-0.2 2.4 0 0.8 0 1.7 0.1 2.2 0.1 0.5 0.4 1.3 0.5 1.9 0.2 0.5 0.6 1.4 0.9 1.9 0.2 0.6 0.7 1.4 1 1.9 0.3 0.5 0.9 1.2 1.2 1.6 0.4 0.4 0.7 0.7 0.7 0.7 0.1 0-0.2-0.5-0.5-1.1-0.3-0.6-0.7-1.7-1-2.3-0.3-0.7-0.6-1.8-0.8-2.6-0.2-0.7-0.4-1.8-0.4-2.4-0.1-0.6-0.1-1.6-0.1-2.2 0-0.6 0.2-1.4 0.3-1.9 0.1-0.5 0.4-1.3 0.7-1.8 0.2-0.5 0.7-1.4 1.1-1.9 0.4-0.5 1-1.1 1.4-1.5 0.3-0.3 1-0.9 1.5-1.2 0.5-0.4 1.2-0.8 1.5-1 0.4-0.2 0.7-0.4 0.7-0.4-0.1-0.1-0.5-0.3-0.9-0.5-0.5-0.3-1.1-0.7-1.4-0.9-0.4-0.3-0.8-0.6-1-0.9-0.2-0.2-0.5-0.8-0.7-1.2-0.4-0.7-0.4-0.9-0.5-1.9 0-0.5 0.1-1.4 0.1-1.8 0.1-0.4 0.3-1 0.5-1.4l0.3-0.6c0.9-0.1 2.1-0.1 3.3-0.1 1.4 0 2.2 0.1 2.6 0.2 0.4 0.1 0.9 0.3 1.2 0.5 0.3 0.1 0.7 0.4 1 0.7 0.5 0.4 0.5 0.4 0.5 0.2 0-0.2-0.1-0.5-0.3-0.8-0.1-0.3-0.5-0.8-0.8-1.1-0.2-0.2-0.7-0.6-1-0.7-0.3-0.2-0.8-0.4-1.1-0.5-0.4-0.1-1.3-0.2-2.8-0.2-1.2-0.1-2.4-0.2-2.6-0.2l-0.5-0.1zm14.6 5.3c0 0.1 0.2 0.3 0.5 0.6 0.2 0.2 0.7 0.6 1.1 0.8 0.3 0.3 1 0.6 1.4 0.9 0.5 0.2 1.1 0.5 1.3 0.5 0.4 0.1 0.5 0.1 0.9 0 0.2 0 0.6-0.3 0.8-0.4l0.4-0.4c1.3 0.2 1.8 0.3 2 0.3 0.4 0 0.3-0.1-0.6-0.6-0.7-0.3-1.2-0.7-1.6-1.1l-0.5-0.6c-4.4 0-5.7 0-5.7 0z"/>
</svg>